<?xml version="1.0" encoding="UTF-8" standalone="no"?>
<!-- Created with Inkscape (http://www.inkscape.org/) -->

<svg
   width="512"
   height="512"
   viewBox="0 0 512 512"
   version="1.1"
   id="svg1"
   inkscape:version="1.4 (86a8ad7, 2024-10-11)"
   sodipodi:docname="pulpo_logo.svg"
   xmlns:inkscape="http://www.inkscape.org/namespaces/inkscape"
   xmlns:sodipodi="http://sodipodi.sourceforge.net/DTD/sodipodi-0.dtd"
   xmlns="http://www.w3.org/2000/svg"
   xmlns:svg="http://www.w3.org/2000/svg">
  <sodipodi:namedview
     id="namedview1"
     pagecolor="#ffffff"
     bordercolor="#000000"
     borderopacity="0.25"
     inkscape:showpageshadow="2"
     inkscape:pageopacity="0.0"
     inkscape:pagecheckerboard="0"
     inkscape:deskcolor="#d1d1d1"
     inkscape:document-units="px"
     inkscape:zoom="0.98046875"
     inkscape:cx="380.94024"
     inkscape:cy="422.75697"
     inkscape:window-width="1918"
     inkscape:window-height="2054"
     inkscape:window-x="1910"
     inkscape:window-y="869"
     inkscape:window-maximized="0"
     inkscape:current-layer="layer1" />
  <defs
     id="defs1">
    <filter
       inkscape:collect="always"
       style="color-interpolation-filters:sRGB"
       id="filter7842"
       x="-0.023448705"
       y="-0.03074302"
       width="1.0468974"
       height="1.061486">
      <feGaussianBlur
         inkscape:collect="always"
         stdDeviation="4.054502"
         id="feGaussianBlur7844" />
    </filter>
    <filter
       inkscape:collect="always"
       style="color-interpolation-filters:sRGB"
       id="filter7842-1"
       x="-0.023448705"
       y="-0.03074302"
       width="1.0468974"
       height="1.061486">
      <feGaussianBlur
         inkscape:collect="always"
         stdDeviation="4.054502"
         id="feGaussianBlur7844-5" />
    </filter>
    <filter
       inkscape:collect="always"
       style="color-interpolation-filters:sRGB"
       id="filter7842-8"
       x="-0.1036287"
       y="-0.13586503"
       width="1.2072574"
       height="1.2717301">
      <feGaussianBlur
         inkscape:collect="always"
         stdDeviation="19.343119"
         id="feGaussianBlur7844-7" />
    </filter>
  </defs>
  <g
     inkscape:label="Ebene 1"
     inkscape:groupmode="layer"
     id="layer1">
    <g
       id="g1"
       transform="matrix(0.1375045,0,0,0.1375045,244.41691,240.81134)">
      <g
         id="g2842"
         inkscape:label="hind-right"
         transform="matrix(3.7795276,0,0,3.7795276,-2671.9788,-3073.9629)">
        <path
           style="fill:#ff8080;stroke-width:0.264583"
           d="m 754.67074,719.63708 c 11.66326,33.71547 45.22206,51.06284 68.05017,76.15678 16.56497,13.86564 19.5149,40.55646 5.27672,57.15052 -8.85795,12.99427 -24.92092,14.46859 -38.20765,19.93721 -34.73507,14.18767 -71.38573,34.761 -86.40016,71.16582 -9.7884,21.41163 -8.64604,47.37826 4.48096,67.14649 12.22138,20.0599 33.90401,33.2949 57.027,36.2754 20.02763,4.3228 44.82765,-3.3632 54.93671,-22.1006 6.98939,-15.089 -7.19401,-30.74391 -22.83457,-28.67799 -14.05024,-1.55413 -33.27248,4.26599 -42.5399,-9.72279 -7.70228,-15.83981 0.23101,-36.26614 16.35108,-43.2414 35.7612,-17.95983 80.63012,-7.90714 113.8365,-32.35831 19.72336,-15.20753 23.47201,-42.45382 22.38561,-65.75484 -1.70995,-25.72688 -13.54129,-51.56318 -34.86616,-66.77755 -3.20284,-6.05146 -15.26545,-21.2076 -19.11713,-7.0205"
           id="path2815" />
        <path
           style="fill:#ff2a2a;stroke-width:0.264583"
           d="m 800.87313,725.61169 c 21.16124,20.85591 48.3057,37.51336 60.70444,65.66421 18.99413,22.35534 28.87597,57.81652 10.87063,83.59471 -10.49101,13.99973 -23.60382,26.69435 -40.7503,31.914 -22.1018,8.14794 -49.07987,12.6625 -62.37885,34.40878 10.71243,2.22401 30.94783,-7.2802 45.35963,-8.30037 17.38384,-3.91403 35.34046,-3.96283 52.83245,-6.45364 31.31805,-8.26025 51.89803,-42.47913 46.1066,-74.08195 -2.41678,-38.23524 -22.53738,-75.39182 -55.38446,-95.79181 -12.74858,-6.2665 -23.55723,-15.62037 -36.04573,-22.30249 -6.52962,-3.24073 -14.20744,-4.66942 -21.31441,-2.61045"
           id="path2817" />
        <path
           style="fill:#ff2a2a;stroke-width:0.264583"
           d="m 795.82803,874.18023 c -29.38832,25.45289 -68.57049,45.73139 -80.84688,85.2622 -4.41605,29.38411 22.3113,54.21967 48.71725,61.18197 17.35801,7.4005 32.01171,-12.1968 49.09659,-4.7919 14.86812,10.1932 -5.56698,27.2806 -16.95348,30.3285 -41.33003,13.2735 -85.84903,-18.7605 -98.59307,-57.72833 -9.92835,-27.07311 0.61997,-59.53926 25.62954,-74.40457 22.10329,-16.24186 42.59181,-42.11114 72.95005,-39.84787 z"
           id="path2823" />
        <ellipse
           style="fill:#ff5555;stroke:#c00f0f;stroke-width:2;stroke-dasharray:none;stroke-opacity:1"
           id="path2825"
           cx="865.13373"
           cy="824.98834"
           rx="12.043626"
           ry="11.039989" />
        <ellipse
           style="fill:#ff5555;stroke:#c00f0f;stroke-width:2;stroke-dasharray:none;stroke-opacity:1"
           id="path2827"
           cx="836.53015"
           cy="884.20282"
           rx="13.549078"
           ry="10.036354" />
        <ellipse
           style="fill:#ff5555;stroke:#c00f0f;stroke-width:2;stroke-dasharray:none;stroke-opacity:1"
           id="path2829"
           cx="743.19202"
           cy="948.43542"
           rx="11.541807"
           ry="10.036354" />
        <ellipse
           style="fill:#ff5555;stroke:#c00f0f;stroke-width:2;stroke-dasharray:none;stroke-opacity:1"
           id="path2831"
           cx="763.76654"
           cy="1003.6354"
           rx="13.04726"
           ry="9.0327187" />
      </g>
      <g
         id="g2785"
         inkscape:label="hind-left"
         style="display:inline"
         transform="matrix(3.7795276,0,0,3.7795276,-2671.9788,-3073.9629)">
        <path
           style="display:inline;fill:#ff2a2a;stroke-width:0.264583"
           d="m 684.51208,816.96514 c 10.06464,-12.07767 20.60141,-23.90886 28.00684,-37.83326 12.17249,-9.74775 22.15507,-37.92784 -3.03429,-34.91017 -26.02209,2.70503 -47.53171,24.31272 -52.43042,49.62229 -1.44056,15.23163 13.77947,24.36612 27.45787,23.12114 z"
           id="path2805" />
        <path
           style="fill:#ff2a2a;stroke-width:0.264583"
           d="m 703.56393,769.76575 c 5.47861,25.85371 -14.357,46.94193 -30.47134,64.32007 -12.53639,13.65956 -22.37661,29.6643 -31.25414,45.88409 -11.21378,20.53833 -1.87189,45.61582 13.95333,60.87451 22.47512,23.90486 56.51897,30.28054 80.90138,51.61615 18.76004,15.16933 36.26293,37.07753 35.65633,62.35813 -3.18815,23.5682 -23.61997,38.7905 -39.6659,54.134 -22.69508,18.5479 -59.4949,28.1977 -83.84322,7.3477 -18.48021,-11.8954 -24.96547,-39.6038 -10.59714,-57.1005 8.6067,-8.9452 19.98995,-20.4584 33.72316,-15.9507 12.50476,3.4396 18.05151,17.7933 15.20716,29.6592 -1.07191,18.0407 22.78436,15.3674 30.83612,4.9474 7.33806,-9.3653 14.43384,-22.2289 8.73629,-34.2438 -4.38573,-11.3618 -15.93088,-16.6976 -26.49074,-20.6622 -35.69803,-18.2807 -80.56307,-18.7044 -109.98821,-48.5729 -15.42569,-14.03757 -25.93773,-33.37987 -27.51575,-54.35169 -3.00463,-25.35369 4.70636,-50.19398 13.47874,-73.62808 7.14582,-24.24857 16.31627,-50.62505 39.20607,-64.41361 22.48296,-15.20808 51.24236,-24.91345 78.29595,-18.76047 3.69179,1.44331 7.13507,3.6173 9.83191,6.5427 z"
           id="path2704"
           inkscape:label="path2704" />
        <path
           style="fill:#ff8080;stroke-width:0.264583"
           d="m 711.59628,765.74382 c -0.66381,1.68174 -1.32765,3.36349 -1.99146,5.04523 -0.35404,0.33192 -0.83376,0.56756 -1.06212,0.99576 -1.28365,2.40692 -2.83988,5.89365 -4.97872,8.03254 -0.23468,0.23468 -0.76104,-0.23471 -0.99573,0 -0.23471,0.23471 0.14843,0.69887 0,0.99576 -0.69657,1.39316 -2.93158,2.93166 -4.04934,4.04945 -1.41901,1.41904 -4.0663,3.15396 -4.97872,4.97885 -0.14843,0.29689 0,0.66384 0,0.99576 -0.33192,0.68598 -0.56986,1.42597 -0.99573,2.05792 0.0734,2.01065 -1.51903,0.45691 -2.05788,0.99576 -0.23468,0.23472 0.14843,0.6989 0,0.99579 -0.41984,0.83968 -1.57162,1.15184 -1.99146,1.99152 -0.14846,0.29689 0.23468,0.76107 0,0.99576 -0.23472,0.23471 -0.76105,-0.23469 -0.99576,0 -0.54867,0.54869 -2.2233,4.30593 -2.98723,5.04523 -0.25439,0.24622 -0.80769,-0.24622 -1.06211,0 -0.53333,0.51615 -0.47094,1.46672 -0.99574,1.99155 -2.06026,2.06028 0.0806,-3.14847 -1.99149,0.99576 -1.58824,3.17661 -3.23747,7.22063 -6.04083,10.02405 -0.23469,0.23472 -0.76103,-0.23468 -0.99574,0 -1.10963,1.10967 -1.34408,4.74618 -1.99146,6.041 -0.95877,1.91754 -3.01797,3.11515 -3.98299,5.04523 -0.58462,1.16927 -0.49215,2.84311 -1.06211,3.98306 -0.89401,1.78806 -3.35918,3.17381 -3.98296,5.04521 -0.20992,0.62979 0.20992,1.36176 0,1.99155 -0.71536,2.14608 -4.01918,3.98912 -5.0451,6.04099 -2.59887,5.1979 -7.05258,10.0561 -9.02804,14.00712 -0.9063,1.81269 -3.102,3.28327 -3.98298,5.04523 -0.14843,0.29689 0.23471,0.76105 0,0.99576 -2.06023,2.06031 0.0806,-3.14843 -1.99147,0.99579 -0.14843,0.29686 0.24215,0.76875 0,0.99576 -0.25828,0.24215 -0.80383,-0.24215 -1.06211,0 -0.24215,0.22701 0.18129,0.71773 0,0.99576 -0.52147,0.79957 -1.32398,1.37554 -1.9915,2.05793 -1.11021,1.1349 -3.27877,2.57466 -3.98295,3.98306 -0.66792,1.33583 -1.34194,2.66232 -2.05788,4.04945 -0.30446,0.58991 0.29689,1.39777 0,1.99154 -0.72607,1.45222 -1.59292,1.59298 -1.99147,1.99155 -0.46942,0.4694 0.29687,1.39777 0,1.99152 -0.34081,0.68162 -0.47455,1.50196 -0.99576,2.05793 -0.22698,0.24214 -0.8473,-0.29689 -0.99573,0 -0.29686,0.59375 0.20992,1.36175 0,1.99152 -0.65458,1.96381 -2.07304,4.15163 -2.98722,6.04099 -0.47559,0.9829 0.32864,2.99712 0,3.98309 -0.14844,0.44529 -0.78582,0.57592 -0.99574,0.99576 -0.60227,1.20459 0.48655,2.14138 -1.06211,5.04523 -0.53788,1.00849 -0.53065,8.03331 0,9.02827 0.22836,0.42823 0.83372,0.56756 1.06211,0.99579 0.69342,1.30019 -0.6436,3.64871 0,4.97882 1.01397,2.09558 1.94543,3.95738 2.98723,6.041 0.29686,0.59377 -0.4694,1.52212 0,1.99154 0.23468,0.23469 0.76872,-0.24215 0.99573,0 0.26416,0.28178 2.82326,4.88125 2.98723,5.04521 0.66743,0.66749 2.35704,0.59838 3.05361,1.99154 0.28278,0.56558 2.7728,4.83079 2.98722,5.04524 0.23469,0.23468 0.76105,-0.23472 0.99573,0 0.5248,0.5248 0.47094,1.46669 0.99574,1.99152 0.23471,0.23471 0.69696,-0.14457 0.99576,0 2.34227,1.13339 0.35216,0.5716 1.06211,1.99154 0.54338,1.0868 2.94672,2.0174 3.98296,3.05369 1.42446,1.42449 3.25506,4.08379 5.0451,4.97882 3.80278,1.90146 8.16653,4.11658 12.01526,6.041 4.14396,2.07203 -1.06444,-0.0687 0.99573,1.99154 0.23472,0.23469 0.76105,-0.23471 0.99576,0 1.21965,2.43938 0.47093,1.46672 2.05785,3.05369 -0.0994,1.97268 1.46669,0.47096 1.99149,0.99576 0.23472,0.23471 -0.23471,0.76107 0,0.99576 0.41725,0.41727 2.38377,0.69403 2.98723,0.99578 4.14396,2.07204 -1.06447,-0.0687 0.99573,1.99152 0.44305,0.44307 2.42454,0.69139 3.05361,0.99579 1.10096,0.53274 0.9207,1.4868 1.99149,2.0579 1.02328,0.54578 3.10222,0.11502 3.98296,0.99579 0.23469,0.23468 -0.23471,0.76104 0,0.99576 0.48504,0.48503 1.55745,-0.46916 2.05785,0 0.24215,0.22701 -0.23468,0.76104 0,0.99576 0.41725,0.41727 2.38377,0.69402 2.98723,0.99578 1.45224,0.72612 1.59289,1.59293 1.99149,1.99152 0.82934,0.82936 7.33885,2.4906 9.02806,3.05369 1.98144,0.6605 0.46469,0.9294 0.99573,1.99154 1.05603,2.11212 1.14702,0.0732 3.05361,0.99576 0.6681,0.32327 0.3782,1.57983 0.99573,1.99155 1.14123,0.76083 3.04509,1.35945 3.98296,1.99152 1.19372,0.80449 1.8559,2.25517 3.05361,3.05369 2.02134,1.3476 3.93679,1.48407 5.97445,2.9873 3.43911,2.53712 6.51113,5.6983 10.09018,8.03254 3.27226,2.13414 6.74764,4.40284 10.02379,6.04104 1.99149,0.9957 2.9872,3.983 4.97869,4.9788 0.29689,0.1484 0.76105,-0.2347 0.99576,0 0.54584,0.5458 0.63071,1.4177 1.06212,2.0579 1.00052,1.4847 3.18966,2.3964 3.98296,3.9831 0.29688,0.5937 -0.29687,1.3977 0,1.9915 0.14843,0.2969 0.76104,-0.2347 0.99575,0 2.21785,2.2179 -3.46974,-0.3237 0.99574,2.0579 0.29286,0.1562 0.76105,-0.2347 0.99573,0 0.23471,0.2347 -0.15618,0.7029 0,0.9958 0.86487,1.6216 1.241,0.3577 2.05788,1.9915 1.94037,3.8809 5.46748,7.5074 6.97018,12.0156 0.42683,1.2806 -0.34245,2.7438 0,4.0495 0.12311,0.4694 0.89953,0.5385 1.06212,0.9958 0.45847,1.2894 0.57147,2.6819 0.99573,3.983 1.13496,3.4806 -0.0348,17.5065 -0.99573,21.1103 -0.66858,2.5073 -2.89404,4.6876 -4.04935,7.0368 -1.49521,3.0403 -2.56241,6.6644 -4.97871,9.0283 -1.07686,1.0534 -5.01777,3.9557 -6.04081,4.9788 -0.53885,0.5388 -0.4658,1.5103 -0.99576,2.0579 -0.32642,0.3373 -0.66381,0.6638 -0.99573,0.9958 -0.68596,0.3319 -1.51313,0.4628 -2.05788,0.9957 -0.53051,0.5191 -0.47093,1.4667 -0.99573,1.9916 -0.5248,0.5248 -1.37396,0.584 -1.99147,0.9957 -2.26756,1.5118 0.39862,0.6104 -1.99149,3.0537 -0.57933,0.5922 -5.40234,4.5532 -6.04083,4.9789 -1.62743,1.0849 -4.73774,1.7505 -6.04084,3.0537 -0.5248,0.5248 -0.37819,1.5798 -0.99573,1.9915 -0.55235,0.3682 -1.36173,-0.2099 -1.99149,0 -1.54969,0.5166 -3.49536,2.4707 -5.04508,2.9873 -0.62976,0.2099 -1.36173,-0.2099 -1.99149,0 -0.44529,0.1484 -0.55991,0.8214 -0.99573,0.9958 -1.68349,2.4244 -4.1006,0.363 -6.04084,0.9957 -0.44627,0.1455 -0.57869,0.7803 -0.99573,0.9958 -3.36407,1.7381 -3.13095,0.1133 -6.04084,1.0622 -0.44627,0.1455 -0.55041,0.8473 -0.99573,0.9957 -4.40375,1.468 -25.28398,1.5958 -30.07138,0 -1.81379,-0.6046 -4.18025,0.4652 -6.04083,0 -3.14425,-0.7861 -7.21527,-1.1813 -10.02379,-3.0537 -0.78113,-0.5208 -1.15179,-1.5717 -1.99147,-1.9915 -0.29689,-0.1485 -0.76105,0.2347 -0.99576,0 -2.08544,-2.0855 3.29129,0.115 -1.06211,-1.9915 -0.29877,-0.1446 -0.76105,0.2346 -0.99574,0 -1.39308,-1.3932 -3.39968,-10.7445 -3.98298,-13.0778 -0.41048,-1.6419 -0.23884,-3.465 -0.99573,-4.9788 -0.20992,-0.4199 -0.85022,-0.5495 -0.99574,-0.9958 -0.72781,-2.232 0.99574,-4.7166 0.99574,-7.0367 0,-2.2223 -0.72801,-5.8485 0,-8.0326 0.23471,-0.7041 0.87503,-1.2592 0.99573,-1.9915 0.89344,-5.4204 -0.26305,-5.431 1.99149,-10.0905 0.47247,-0.9764 0.41921,-3.1182 0.99573,-3.983 0.52076,-0.7812 1.47074,-1.2104 1.9915,-1.9916 1.09815,-1.6472 -1.89125,-0.5335 1.06211,-2.0579 1.21108,-0.6251 2.76117,-1.3806 3.98296,-1.9915 2.11804,-1.0591 -0.12652,-0.9325 1.99149,-1.9916 1.51742,-0.7587 5.39102,-2.2826 7.03657,-3.983 1.41587,-1.4631 6.03496,-2.0579 8.03233,-2.0579 1.81938,0 1.47383,0.5022 2.9872,0.9957 0.65217,0.2127 1.44832,-0.3146 2.05787,0 0.31462,0.1624 -0.1542,0.7435 0,1.0622 1.94255,4.0147 0.0228,-0.973 1.99149,0.9957 0.93867,0.9387 -1.18398,12.493 -1.99149,14.0072 -0.22836,0.4282 -0.83955,0.5645 -1.06211,0.9957 -0.73168,1.4177 0.68595,0.686 0,2.058 -0.20993,0.4198 -0.84731,0.5504 -0.99576,0.9957 -0.49896,1.497 0.48918,3.4787 0,4.9789 -0.0904,0.2773 -1.78906,3.2561 -0.99574,4.0494 0.23471,0.2347 0.76105,-0.2347 0.99574,0 0.74435,0.7444 -0.0457,4.0025 0.99576,4.9789 0.3706,0.3474 2.68493,0.6934 3.0536,1.0621 0.23469,0.2347 -0.23471,0.7611 0,0.9958 0.49139,0.4914 7.41821,0.307 8.0323,0 4.22556,-2.1129 9.49825,-2.8279 14.00675,-5.0452 0.90305,-0.3739 1.20407,-1.5647 2.05788,-1.9916 0.29686,-0.1484 0.76105,0.2347 0.99573,0 0.23472,-0.2347 -0.23471,-0.761 0,-0.9957 0.58648,-0.5865 3.39842,-1.4734 3.98296,-2.058 0.23471,-0.2347 -0.14843,-0.6989 0,-0.9957 0.61204,-1.2241 2.4416,-1.7633 3.05361,-2.9873 0.29689,-0.5938 -0.4694,-1.5222 0,-1.9916 0.23471,-0.2347 0.76105,0.2347 0.99573,0 0.46943,-0.4694 -0.28913,-1.3939 0,-1.9915 0.21138,-0.4369 0.84529,-0.6008 0.99576,-1.0622 0.2058,-0.6311 -0.29689,-1.3977 0,-1.9915 0.14843,-0.2969 0.8473,0.2969 0.99574,0 0.17713,-0.3543 0.31083,-16.4391 0,-17.0608 -0.6658,-1.3316 -2.91039,-5.3182 -3.98296,-6.041 -0.63193,-0.4259 -1.51315,-0.4629 -2.05788,-0.9958 -0.53054,-0.519 -0.47093,-1.4667 -0.99573,-1.9915 -0.6499,-0.6499 -3.07972,-1.5399 -3.98296,-1.9915 -2.19318,-1.0967 -3.87511,-3.9624 -6.04083,-5.0453 -2.59784,-1.2989 -6.43022,-1.6883 -9.02806,-2.9873 -0.41984,-0.2099 -0.53991,-0.8837 -0.99574,-0.9957 -0.98843,-0.2431 -2.06517,0.243 -3.0536,0 -1.16211,-0.2858 -1.8519,-1.6131 -2.98723,-1.9916 -0.94464,-0.3149 -2.02406,0.2527 -2.98723,0 -1.85478,0.6195 -1.88915,-1.6697 -3.0536,-2.0579 -0.62974,-0.2099 -1.39772,0.2969 -1.99147,0 -0.66384,-0.6639 -1.32765,-1.3277 -1.99149,-1.9915 -0.33192,0 -0.69887,0.1484 -0.99574,0 -1.21152,-0.6058 -1.81546,-2.3882 -3.0536,-2.9873 -2.53429,-1.2263 -6.50711,-1.373 -9.02806,-3.0537 -0.78113,-0.5208 -1.21034,-1.4708 -1.99147,-1.9915 -0.87331,-0.5823 -2.11391,-0.4136 -2.98722,-0.9958 -2.35686,-1.5713 -4.6023,-3.4134 -7.03657,-5.0452 -1.54445,-1.0354 -2.48007,-2.95964 -4.04934,-3.98313 -1.65585,-1.07989 -4.60053,-1.58279 -5.97445,-2.9873 -0.5329,-0.54473 -0.45691,-1.51905 -0.99574,-2.0579 -2.68851,-2.68859 -7.11388,-3.48885 -10.09017,-5.97461 -8.08223,-6.75016 -16.54678,-12.89188 -23.03481,-21.11029 -1.391,-1.76194 -3.88189,-2.19943 -5.04511,-3.98306 -1.16242,-1.78242 -2.08012,-3.80421 -3.98295,-5.04524 -0.63828,-0.41626 -1.62558,-0.36819 -2.05788,-0.99575 -0.37658,-0.54669 0.29689,-1.39777 0,-1.99152 -0.33189,-0.66384 -1.55088,-0.39852 -1.99147,-0.99579 -5.94127,-8.05392 -11.70786,-12.39652 -16.06462,-21.11026 -2.27857,-4.55729 0.41272,4.22553 -1.99149,-2.9873 -1.38168,-4.1452 -2.92214,-8.83433 -3.98296,-13.07775 -0.56134,-2.24541 1.07643,-6.01419 0,-8.03253 -0.9706,-1.81994 -1.34565,-3.79045 -2.05785,-5.97461 -1.20129,-3.68401 -0.10475,-10.77201 0.99573,-14.07351 1.59716,-4.7916 -1.05942,-11.09898 0,-16.06505 0.15698,-0.7358 0.86828,-1.2646 1.06212,-1.99154 1.24261,-4.65992 -0.18921,-10.32931 0.99576,-15.06929 1.55352,-6.2143 2.69319,-12.6034 3.98296,-19.05236 0.43613,-2.1808 0.30278,-4.95789 0.99573,-7.03675 0.14843,-0.44532 0.66384,-0.66384 0.99573,-0.99576 0.33192,-0.66384 0.81852,-1.27082 0.99576,-1.99155 0.16378,-0.66611 -0.17404,-1.39438 0,-2.0579 0.61709,-2.35273 2.46608,-4.64746 3.05361,-7.03678 0.94043,-3.82458 1.48873,-6.99047 2.9872,-11.01981 1.15774,-3.11309 1.19176,-1.31512 3.05361,-4.97885 0.71398,-1.40494 0.51321,-3.59757 0.99576,-5.04521 0.42635,-1.27916 2.56971,-2.70269 2.9872,-3.98306 0.70204,-2.153 0.57319,-3.91348 1.99149,-6.041 3.60659,-5.41004 6.62178,-11.43997 10.02379,-17.06083 1.77488,-2.93249 4.00672,-6.31606 6.04083,-9.0283 0.13994,-0.18661 3.94973,-3.9016 4.04935,-4.04945 1.23039,-1.82576 2.37035,-5.08005 3.98295,-7.03675 0.99576,-0.99576 1.9915,-1.99155 2.98723,-2.98731 0.68596,-0.33192 1.51315,-0.46286 2.05788,-0.99576 1.55336,-1.51963 2.44453,-4.50254 3.98295,-6.04099 1.48575,-1.48579 3.55934,-2.49727 5.04508,-3.98306 0.14682,-0.14682 1.89405,-3.91737 1.99149,-4.04948 1.87452,-2.54108 4.62365,-5.19808 6.04084,-8.03251 0.29686,-0.59378 -0.29689,-1.39777 0,-1.99154 1.02356,-2.04719 2.6222,-3.95444 3.98295,-6.041 1.37049,-2.10145 4.84997,-1.79641 6.04084,-2.9873 0.23468,-0.23469 -0.29689,-0.8473 0,-0.99576 0.59372,-0.29689 1.3617,0.20992 1.99146,0 0.89064,-0.29689 1.14642,-1.58261 1.9915,-1.99155 0.31869,-0.15419 0.70807,0 1.06211,0 0.99576,-0.68595 1.91299,-1.50286 2.98723,-2.0579 0.58975,-0.30472 1.52209,0.4694 1.99149,0 0.23469,-0.23471 -0.23471,-0.76107 0,-0.99578 0.23096,-0.23096 5.40496,-0.67781 6.04083,-0.99576 2.03132,-1.01569 3.87546,-2.28119 6.04081,-2.98731 0.63114,-0.20579 1.36173,0.20992 1.99149,0 0.44532,-0.14843 0.55044,-0.84733 0.99574,-0.99576 1.03965,-0.34655 12.72167,-0.44071 14.07313,0 0.44627,0.14552 0.54036,0.88191 0.99576,0.99576 0.966,0.24151 2.01081,-0.19529 2.98723,0 1.23433,0.24688 9.76442,4.03236 11.01952,4.97885 1.14933,0.86672 1.76607,2.40991 3.05361,3.05369 0.9388,0.4694 2.08719,0.45575 2.98723,0.99576 1.86571,1.11948 3.30911,3.7361 5.04507,5.04523 4.64484,3.50277 4.80507,2.63404 8.03233,7.96613 0.94895,1.56792 3.17471,2.43292 3.98296,4.04945 0.59375,1.18753 -0.41162,2.72082 0,3.98309 0.15044,0.46138 0.90178,0.58602 0.99573,1.06214 0.38563,1.95384 0,3.98307 0,5.97461 0,12.48172 -2.76805,17.83739 -12.01529,27.08487 z"
           id="path2613"
           inkscape:label="hind-left1" />
        <path
           style="fill:#ff2a2a;stroke-width:0.264583"
           d="m 740.67188,1003.6384 c 13.85395,11.3553 16.05518,31.8495 9.94573,47.8466 -4.17868,12.6869 -14.2186,21.9655 -23.90782,30.5904 -12.49307,10.6114 -29.5195,19.0837 -46.18789,14.3107 -7.82383,-1.8217 -15.70833,-7.2971 -16.44392,-15.9454 -1.26517,-9.0097 2.53011,-17.6547 6.0608,-25.6351 2.76012,-8.8534 -8.03586,-12.017 -14.15654,-7.7483 -6.17606,2.7387 -11.9168,7.5479 -13.83815,14.213 -9.6463,16.3784 -8.43897,39.8935 6.41156,52.8491 13.8089,13.5528 35.31059,15.5736 53.0818,9.8021 9.8989,-3.2532 19.05513,-8.3976 28.16532,-13.3768 19.02717,-11.3098 36.7823,-28.7066 40.25803,-51.4781 1.62032,-12.3478 -0.74281,-25.1041 -5.46052,-36.5502 -4.11603,-9.7474 -12.78913,-18.5579 -23.9284,-18.878 z"
           id="path2709" />
        <ellipse
           style="fill:#ff5555;stroke:#c00f0f;stroke-width:2;stroke-dasharray:none;stroke-opacity:1"
           id="path2717"
           cx="604.69037"
           cy="900.26099"
           rx="11.541807"
           ry="12.043626" />
        <ellipse
           style="fill:#ff5555;stroke:#c00f0f;stroke-width:2;stroke-dasharray:none;stroke-opacity:1"
           id="path2771"
           cx="641.82483"
           cy="969.51178"
           rx="11.541807"
           ry="11.039989" />
        <ellipse
           style="fill:#ff5555;stroke:#c00f0f;stroke-width:2;stroke-dasharray:none;stroke-opacity:1"
           id="path2773"
           cx="707.06116"
           cy="1013.6718"
           rx="8.530901"
           ry="9.0327187" />
        <ellipse
           style="fill:#ff5555;stroke:#c00f0f;stroke-width:2;stroke-dasharray:none;stroke-opacity:1"
           id="path2775"
           cx="739.67932"
           cy="1054.8208"
           rx="10.036354"
           ry="8.0290833" />
      </g>
      <g
         id="g4380"
         style="display:inline"
         inkscape:label="Hind Outline"
         transform="matrix(3.7795276,0,0,3.7795276,-2671.9788,-3073.9629)">
        <path
           id="path2805-3"
           style="display:inline;fill:none;stroke:#000000;stroke-width:2;stroke-dasharray:none;stroke-opacity:1"
           inkscape:label="Outline"
           d="m 753.01071,740.02993 c 15.63678,21.15508 38.17232,37.27131 62.1306,48.5758 2.7867,2.6558 5.4896,5.3713 8.0521,8.1882 16.56488,13.86559 19.51479,40.55652 5.2767,57.1505 -8.85779,12.99419 -24.92071,14.46871 -38.2074,19.9372 -1.2075,0.4933 -2.4207,1.0134 -3.6318,1.5224 -16.14158,1.9751 -29.48591,11.74081 -42.1628,22.3031 -6.97429,4.7998 -13.52601,10.11511 -19.4123,16.0434 -0.5676,0.4307 -1.1357,0.8595 -1.7053,1.278 -18.50328,10.99799 -29.0789,31.63082 -29.3145,52.5854 -13.68529,-6.95389 -27.04731,-14.36331 -37.7713,-25.7695 -15.82518,-15.25868 -25.16739,-40.33602 -13.9537,-60.8743 8.87749,-16.21968 18.71811,-32.22451 31.2544,-45.884 9.81349,-10.58309 20.99701,-22.54541 27.0128,-36.1187 4.5916,-5.96999 8.8637,-12.16091 12.4132,-18.835 1.3741,-1.1004 2.7111,-2.4552 3.9817,-3.9538 6.77499,-3.3699 13.29591,-7.3034 19.4345,-12.0556 8.36599,-5.58169 14.1215,-14.43571 16.6031,-24.0931 v 0" />
        <path
           id="path4349"
           style="display:inline;fill:none;stroke:#000000;stroke-width:2;stroke-dasharray:none;stroke-opacity:1"
           inkscape:label="Outline"
           d="m 508.52155,968.08211 c 3.29964,-3.06343 6.59087,-6.11081 9.82646,-9.16398 0.6569,-0.498 1.3095,-1.0046 1.9704,-1.494 15.53848,-14.25329 29.72061,-29.88182 42.2626,-46.6483 0.037,3.4059 0.2367,6.8225 0.6428,10.2495 1.578,20.97168 12.09052,40.31421 27.5162,54.3517 16.04498,16.28678 36.68642,23.80911 57.9236,30.25497 1.3994,1.0343 2.7773,2.0737 4.192,3.0169 0.8733,0.5822 2.1141,0.4135 2.9874,0.9958 0.7811,0.5207 1.21,1.4708 1.9911,1.9916 2.5209,1.6807 6.4941,1.8273 9.0284,3.0536 1.2381,0.5991 1.842,2.3816 3.0535,2.9874 0.2969,0.1484 0.6639,0 0.9958,0 0.6639,0.6638 1.3278,1.3277 1.9917,1.9916 0.5937,0.2969 1.3613,-0.2099 1.991,0 1.1645,0.3882 1.1988,2.6773 3.0536,2.0578 0.9632,0.2527 2.0428,-0.3149 2.9874,0 1.1353,0.3785 1.8253,1.7058 2.9874,1.9916 0.9885,0.243 2.0652,-0.2431 3.0536,0 0.4558,0.112 0.576,0.7859 0.9958,0.9958 2.5978,1.299 6.43,1.6885 9.0279,2.9874 2.1657,1.0829 3.8478,3.9485 6.0409,5.0452 0.9033,0.4516 3.3328,1.3417 3.9827,1.9916 0.5248,0.5248 0.4653,1.4721 0.9959,1.9911 0.5447,0.5329 1.4258,0.5699 2.0577,0.9958 1.0726,0.7228 3.3174,4.7094 3.9832,6.041 0.3109,0.6217 0.1772,16.7066 0,17.0609 -0.1484,0.2969 -0.8473,-0.2969 -0.9958,0 -0.2969,0.5938 0.2058,1.3605 0,1.9916 -0.1504,0.4614 -0.7844,0.6251 -0.9958,1.062 -0.2891,0.5976 0.4694,1.5222 0,1.9916 -0.2347,0.2347 -0.7611,-0.2347 -0.9958,0 -0.4694,0.4694 0.2969,1.3978 0,1.9916 -0.612,1.224 -2.4415,1.7633 -3.0535,2.9874 -0.1485,0.2968 0.2347,0.7611 0,0.9958 -0.5846,0.5846 -3.3963,1.4713 -3.9827,2.0578 -0.2348,0.2347 0.2347,0.7611 0,0.9958 -0.2347,0.2347 -0.699,-0.1484 -0.9959,0 -0.8538,0.4269 -1.1552,1.6177 -2.0582,1.9916 -3.8413,1.8891 -8.2319,2.6943 -12.0623,4.1961 -0.9603,-1.8898 -1.4479,-4.2593 -1.2744,-7.1799 2.4684,-10.2976 -1.38651,-22.4642 -10.6205,-27.7497 0.044,-0.1739 0.064,-0.3301 -0.073,-0.401 -0.2416,-0.1247 -0.5156,-0.1065 -0.7953,-0.065 -1.1625,-0.59 -2.3996,-1.0805 -3.7186,-1.4434 -13.73319,-4.5077 -25.11641,7.0053 -33.723,15.9505 -14.36831,17.4967 -7.88288,45.205 10.5973,57.1004 24.34818,20.8496 61.14792,11.2005 83.8429,-7.3474 0.1917,-0.1833 0.3978,-0.3676 0.5907,-0.5509 13.56869,-8.6872 26.06321,-20.5142 32.6114,-35.2154 3.2263,-5.5728 5.5525,-11.6279 6.4642,-18.3679 0.046,-1.9368 -0.027,-3.8508 -0.186,-5.7464 7.84779,0.4889 15.81981,-0.3878 23.6776,-2.9114 6.38489,-1.7091 15.6127,-7.833 19.868,-14.6797 1.5529,-1.8874 2.9432,-3.9211 4.1254,-6.1123 6.98919,-15.089 -7.19432,-30.74377 -22.8348,-28.67787 -7.84179,-0.8674 -17.29211,0.5568 -25.7261,-0.4423 a 13.04726,9.0327187 0 0 0 -7.1396,-1.6418 c -3.7736,-1.4128 -7.1071,-3.7636 -9.6743,-7.6388 -7.70229,-15.83978 0.23142,-36.26611 16.3514,-43.2413 1.7018,-0.8546 3.43,-1.6276 5.1708,-2.3621 11.18509,-1.1127 26.89281,-7.6358 38.6968,-8.4714 17.38368,-3.9139 35.34042,-3.963 52.8324,-6.4538 31.31777,-8.26019 51.89759,-42.47913 46.1062,-74.0817 -0.8618,-13.63429 -3.98621,-27.12681 -9.1245,-39.7759 2.099,0.4331 4.1963,0.8747 6.2988,1.2898 l 1.7069,1.4211 c 22.33532,12.13861 43.04342,27.9734 60.99693,46.52378" />
      </g>
      <g
         id="g1511"
         style="fill:#4d4d4d"
         transform="matrix(3.7795276,0,0,3.7795276,-957.42176,-1541.4827)"
         inkscape:label="Gray Net">
        <circle
           style="fill:#4d4d4d;stroke-width:0.617363"
           id="path292-8-2-2-6-9-6-6-2"
           cx="355.96103"
           cy="717.17737"
           r="35"
           inkscape:label="Ball8" />
        <circle
           style="fill:#4d4d4d;stroke-width:0.352778"
           id="path292-8-2-0"
           cx="36.202965"
           cy="641.54834"
           r="20"
           inkscape:label="Ball3" />
        <circle
           style="fill:#4d4d4d;stroke-width:0.264584"
           id="path292-8-2-2-6-9-6-6-3-5"
           cx="226.94492"
           cy="745.70959"
           r="15"
           inkscape:label="Ball9" />
        <circle
           style="fill:#4d4d4d;stroke-width:0.264584"
           id="path292-8-2-2-6-9-6-6-3-4-7"
           cx="420.10623"
           cy="772.80634"
           r="15"
           inkscape:label="Ball10" />
        <circle
           style="fill:#4d4d4d;stroke-width:0.396876"
           id="path292-8-2-2-6-9-6-6-3-4-8-23"
           cx="501.41257"
           cy="715.72577"
           r="22.5"
           inkscape:label="Ball11" />
        <rect
           style="fill:#4d4d4d;stroke-width:0.216126"
           id="rect775-1-3"
           width="88.115517"
           height="13.912981"
           x="301.71222"
           y="560.83008"
           transform="rotate(24.968213)"
           inkscape:label="Line2" />
        <rect
           style="fill:#4d4d4d;stroke-width:0.216126"
           id="rect775-1-4-0-8"
           width="88.115517"
           height="13.912981"
           x="-595.3241"
           y="-500.78058"
           transform="rotate(-146.28885)"
           inkscape:label="Line4" />
        <rect
           style="fill:#4d4d4d;stroke-width:0.216126"
           id="rect775-1-4-0-4-2-2-1-71"
           width="88.115517"
           height="13.912981"
           x="-862.22711"
           y="1.1427476"
           transform="rotate(-124.4737)"
           inkscape:label="Line8" />
        <rect
           style="fill:#4d4d4d;stroke-width:0.216126"
           id="rect775-1-4-0-4-2-2-1-7-9-6"
           width="88.115517"
           height="13.912981"
           x="-845.55066"
           y="-226.48058"
           transform="rotate(-132.99802)"
           inkscape:label="Line10" />
        <rect
           style="fill:#4d4d4d;stroke-width:0.216126"
           id="rect775-1-4-0-4-2-2-9-7"
           width="88.115517"
           height="13.912981"
           x="-683.70142"
           y="356.15948"
           transform="rotate(-89.133071)"
           inkscape:label="Line11" />
        <rect
           style="fill:#4d4d4d;stroke-width:0.246971"
           id="rect775-1-4-0-4-2-2-9-6-1"
           width="115.06078"
           height="13.913115"
           x="48.099205"
           y="773.26465"
           transform="matrix(0.97086254,-0.23963708,0.24237085,0.97018368,0,0)"
           inkscape:label="Line12" />
        <rect
           style="fill:#4d4d4d;stroke-width:0.265955"
           id="rect775-1-4-0-4-2-2-8-0"
           width="133.40276"
           height="13.915832"
           x="-719.18134"
           y="-313.42163"
           transform="matrix(-0.75917845,-0.65088254,0.66234423,-0.74919966,0,0)"
           inkscape:label="Line14" />
        <path
           id="path292-8-2-2-6-9-6-6-2-0"
           style="fill:#4d4d4d;stroke:#000000;stroke-width:2;stroke-dasharray:none;stroke-opacity:1"
           inkscape:label="Ball8"
           d="m 347.10751,600.90624 -1.25264,82.76963 a 35,35 0 0 0 -5.79293,2.34456 l -93.72761,-80.35789 -9.21701,10.42572 91.89413,78.78589 a 35,35 0 0 0 -8.05067,22.30303 35,35 0 0 0 0.003,0.0682 l -81.54852,20.12848 a 15,15 0 0 0 -12.47004,-6.66419 15,15 0 0 0 -6.64662,1.55856 l -68.59323,-45.76516 -7.72201,11.57345 68.12349,45.45149 a 15,15 0 0 0 -0.16174,2.18178 15,15 0 0 0 15.00011,14.9996 15,15 0 0 0 13.89115,-9.3555 l 82.94429,-20.47317 a 35,35 0 0 0 32.18098,21.29637 35,35 0 0 0 25.47545,-11.01224 l 24.62123,26.4051 a 15,15 0 0 0 -0.95188,5.23638 15,15 0 0 0 15.00012,15.00011 15,15 0 0 0 15.00012,-15.00011 15,15 0 0 0 -15.00012,-15.00012 15,15 0 0 0 -3.69073,0.47077 l -27.47171,-29.46177 a 35,35 0 0 0 2.01745,-11.63805 35,35 0 0 0 -31.17226,-34.78754 l 1.2299,-81.27256 z M 36.202969,621.5484 a 20,20 0 0 0 -19.999813,19.99981 20,20 0 0 0 19.999813,20.00033 20,20 0 0 0 12.866915,-4.70514 l 61.717676,28.73778 5.87251,-12.61267 L 55.9475,644.6984 a 20,20 0 0 0 0.255282,-3.15019 20,20 0 0 0 -19.999813,-19.99981 z m 414.377291,8.09666 -11.46958,7.87497 44.3761,64.63068 a 22.5,22.5 0 0 0 -4.5744,13.57488 22.5,22.5 0 0 0 22.50044,22.49992 22.5,22.5 0 0 0 22.49991,-22.49992 22.5,22.5 0 0 0 -22.49991,-22.49992 22.5,22.5 0 0 0 -6.51278,0.9679 z"
           transform="translate(-1.8895833e-4,-9.625e-5)" />
      </g>
      <g
         id="g1431"
         style="fill:#ff6600"
         transform="matrix(3.7795276,0,0,3.7795276,-957.42176,-1541.4827)"
         inkscape:label="Orange Net">
        <circle
           style="fill:#ff6600;stroke-width:0.264583"
           id="circle2952"
           cx="113.75777"
           cy="547.28619"
           r="25"
           inkscape:label="Ball 1" />
        <circle
           style="fill:#ff6600;stroke-width:0.264583"
           id="circle2949"
           cx="85.138451"
           cy="770.67737"
           r="15"
           inkscape:label="Ball2" />
        <circle
           style="fill:#ff6600;stroke-width:0.705556"
           id="circle2946"
           cx="147.71915"
           cy="686.35474"
           r="40"
           inkscape:label="Ball4" />
        <circle
           style="fill:#ff6600;stroke-width:0.529167"
           id="circle2943"
           cx="222.75137"
           cy="604.54828"
           r="30"
           inkscape:label="Ball5" />
        <circle
           style="fill:#ff6600;stroke-width:0.440973"
           id="circle2940"
           cx="352.65463"
           cy="581.87085"
           r="25"
           inkscape:label="Ball6" />
        <circle
           style="fill:#ff6600;stroke-width:0.396876"
           id="circle2937"
           cx="268.57394"
           cy="511.27408"
           r="22.5"
           inkscape:label="Ball7" />
        <circle
           style="fill:#ff6600;stroke-width:0.396876"
           id="circle2934"
           cx="505.26743"
           cy="570.54828"
           r="22.5"
           inkscape:label="Ball12" />
        <circle
           style="fill:#ff6600;stroke-width:0.396876"
           id="circle2931"
           cx="441.39658"
           cy="459.12888"
           r="22.5"
           inkscape:label="Ball13" />
        <circle
           style="fill:#ff6600;stroke-width:0.396876"
           id="circle2928"
           cx="437.13858"
           cy="621.64508"
           r="22.5"
           inkscape:label="Ball13" />
        <rect
           style="fill:#ff6600;stroke-width:0.216126"
           id="rect2925"
           width="88.115517"
           height="13.912981"
           x="353.11414"
           y="433.00803"
           transform="rotate(26.079194)"
           inkscape:label="Line1" />
        <rect
           style="fill:#ff6600;stroke-width:0.216126"
           id="rect2922"
           width="88.115517"
           height="13.912981"
           x="-517.58063"
           y="566.15338"
           transform="rotate(-48.459182)"
           inkscape:label="Line3" />
        <rect
           style="fill:#ff6600;stroke-width:0.216126"
           id="rect2919"
           width="88.115517"
           height="13.912981"
           x="270.33438"
           y="-601.20947"
           transform="rotate(136.19105)"
           inkscape:label="Line5" />
        <rect
           style="fill:#ff6600;stroke-width:0.216126"
           id="rect2916"
           width="88.115517"
           height="13.912981"
           x="313.79001"
           y="-495.26035"
           transform="rotate(119.54369)"
           inkscape:label="Line6" />
        <rect
           style="fill:#ff6600;stroke-width:0.216126"
           id="rect2913"
           width="88.115517"
           height="13.912981"
           x="-636.44806"
           y="-219.68126"
           transform="rotate(-139.64176)"
           inkscape:label="Line7" />
        <rect
           style="fill:#ff6600;stroke-width:0.216126"
           id="rect2910"
           width="88.115517"
           height="13.912981"
           x="14.667633"
           y="-765.8512"
           transform="rotate(136.78163)"
           inkscape:label="Line9" />
        <rect
           style="fill:#ff6600;stroke-width:0.246971"
           id="rect2907"
           width="115.06078"
           height="13.913115"
           x="573.61871"
           y="318.54364"
           transform="matrix(0.86838176,0.49589628,-0.49344826,0.86977515,0,0)"
           inkscape:label="Line13" />
        <rect
           style="fill:#ff6600;stroke-width:0.265955"
           id="rect2904"
           width="133.40276"
           height="13.915832"
           x="-749.34485"
           y="157.9859"
           transform="matrix(-0.48320532,-0.87550706,0.88274899,-0.46984488,0,0)"
           inkscape:label="Line15" />
        <path
           id="circle2952-5"
           style="opacity:1;mix-blend-mode:normal;fill:#ffcc00;fill-opacity:1;stroke:#000000;stroke-width:2;stroke-dasharray:none;stroke-opacity:1;filter:url(#filter7842)"
           inkscape:label="Outline"
           d="m 441.39673,436.62873 a 22.5,22.5 0 0 0 -22.49992,22.49992 22.5,22.5 0 0 0 22.49992,22.50043 22.5,22.5 0 0 0 4.58422,-0.48421 l 41.64087,75.44811 a 22.5,22.5 0 0 0 -4.85449,13.95522 22.5,22.5 0 0 0 1.01596,6.67763 l -30.5449,28.70212 a 22.5,22.5 0 0 0 -16.0998,-6.78305 22.5,22.5 0 0 0 -16.89406,7.66155 l -42.61238,-24.33391 a 25,25 0 0 0 0.0227,-0.60152 25,25 0 0 0 -25.00003,-25.00002 25,25 0 0 0 -11.68766,2.91972 L 290.3718,516.79489 a 22.5,22.5 0 0 0 0.70228,-5.52059 22.5,22.5 0 0 0 -22.50043,-22.50044 22.5,22.5 0 0 0 -22.49992,22.50044 22.5,22.5 0 0 0 7.79281,17.00671 l -26.4325,46.63592 a 30,30 0 0 0 -4.68292,-0.36846 30,30 0 0 0 -19.34714,7.09776 L 138.6007,549.92879 a 25,25 0 0 0 0.1571,-2.64274 25,25 0 0 0 -25.00002,-25.00002 25,25 0 0 0 -25.000029,25.00002 25,25 0 0 0 25.000029,25.00003 25,25 0 0 0 19.57141,-9.44749 l 61.73008,30.21315 a 30,30 0 0 0 -2.30787,11.49645 30,30 0 0 0 6.28179,18.34824 l -30.52889,29.28503 a 40,40 0 0 0 -20.78529,-5.82652 40,40 0 0 0 -40.00014,39.99963 40,40 0 0 0 13.81569,30.20177 l -34.743097,39.21363 a 15,15 0 0 0 -1.653129,-0.0925 15,15 0 0 0 -15.000118,15.00012 15,15 0 0 0 15.000118,14.9996 15,15 0 0 0 15.000116,-14.9996 15,15 0 0 0 -1.745628,-7.0218 l 35.312058,-39.85648 a 40,40 0 0 0 14.01413,2.5554 40,40 0 0 0 40.00014,-40.00014 40,40 0 0 0 -8.73487,-24.9468 l 30.98881,-29.72635 a 30,30 0 0 0 12.77803,2.86701 30,30 0 0 0 30.00024,-30.00024 30,30 0 0 0 -12.36514,-24.26673 l 26.40149,-46.58217 a 22.5,22.5 0 0 0 1.78594,0.0749 22.5,22.5 0 0 0 14.27148,-5.11752 l 48.08182,40.86056 a 25,25 0 0 0 -3.27215,12.35376 25,25 0 0 0 25.00002,25.00003 25,25 0 0 0 20.61786,-10.86601 l 41.46052,23.6766 a 22.5,22.5 0 0 0 -0.0946,1.96318 22.5,22.5 0 0 0 22.49992,22.50044 22.5,22.5 0 0 0 22.49992,-22.50044 22.5,22.5 0 0 0 -0.14159,-2.50682 l 32.4404,-30.48289 a 22.5,22.5 0 0 0 13.32993,4.39301 22.5,22.5 0 0 0 22.49992,-22.49992 22.5,22.5 0 0 0 -22.49992,-22.49992 22.5,22.5 0 0 0 -6.00893,0.83251 l -41.19801,-74.64557 a 22.5,22.5 0 0 0 5.83634,-15.10657 22.5,22.5 0 0 0 -22.49992,-22.49992 z"
           transform="translate(-3.7500001e-6)" />
        <path
           id="circle2952-5-2"
           style="mix-blend-mode:normal;fill:#ffcc00;fill-opacity:1;stroke:#000000;stroke-width:2;stroke-dasharray:none;stroke-opacity:1;filter:url(#filter7842-1)"
           inkscape:label="Outline"
           d="m 441.39681,436.62872 a 22.5,22.5 0 0 0 -22.49992,22.49992 22.5,22.5 0 0 0 22.49992,22.50043 22.5,22.5 0 0 0 4.58422,-0.48421 l 41.64087,75.44811 a 22.5,22.5 0 0 0 -4.85449,13.95522 22.5,22.5 0 0 0 1.01596,6.67763 l -30.5449,28.70212 a 22.5,22.5 0 0 0 -16.0998,-6.78305 22.5,22.5 0 0 0 -16.89406,7.66155 l -42.61238,-24.33391 a 25,25 0 0 0 0.0227,-0.60152 25,25 0 0 0 -25.00003,-25.00002 25,25 0 0 0 -11.68766,2.91972 l -50.59536,-42.99583 a 22.5,22.5 0 0 0 0.70228,-5.52059 22.5,22.5 0 0 0 -22.50043,-22.50044 22.5,22.5 0 0 0 -22.49992,22.50044 22.5,22.5 0 0 0 7.79281,17.00671 l -26.4325,46.63592 a 30,30 0 0 0 -4.68292,-0.36846 30,30 0 0 0 -19.34714,7.09776 l -64.80328,-31.71744 a 25,25 0 0 0 0.1571,-2.64274 25,25 0 0 0 -25.00002,-25.00002 25,25 0 0 0 -25.000033,25.00002 25,25 0 0 0 25.000033,25.00003 25,25 0 0 0 19.57141,-9.44749 l 61.73008,30.21315 a 30,30 0 0 0 -2.30787,11.49645 30,30 0 0 0 6.28179,18.34824 l -30.52889,29.28503 a 40,40 0 0 0 -20.78529,-5.82652 40,40 0 0 0 -40.00014,39.99963 40,40 0 0 0 13.81569,30.20177 l -34.743103,39.21363 a 15,15 0 0 0 -1.65313,-0.0925 15,15 0 0 0 -15.00011,15.00012 15,15 0 0 0 15.00011,14.9996 15,15 0 0 0 15.000123,-14.9996 15,15 0 0 0 -1.745633,-7.0218 L 133.70496,723.7993 a 40,40 0 0 0 14.01413,2.5554 40,40 0 0 0 40.00014,-40.00014 40,40 0 0 0 -8.73487,-24.9468 l 30.98881,-29.72635 a 30,30 0 0 0 12.77803,2.86701 30,30 0 0 0 30.00024,-30.00024 30,30 0 0 0 -12.36514,-24.26673 l 26.40149,-46.58217 a 22.5,22.5 0 0 0 1.78594,0.0749 22.5,22.5 0 0 0 14.27148,-5.11752 l 48.08182,40.86056 a 25,25 0 0 0 -3.27215,12.35376 25,25 0 0 0 25.00002,25.00003 25,25 0 0 0 20.61786,-10.86601 l 41.46052,23.6766 a 22.5,22.5 0 0 0 -0.0946,1.96318 22.5,22.5 0 0 0 22.49992,22.50044 22.5,22.5 0 0 0 22.49992,-22.50044 22.5,22.5 0 0 0 -0.14159,-2.50682 l 32.4404,-30.48289 a 22.5,22.5 0 0 0 13.32993,4.39301 22.5,22.5 0 0 0 22.49992,-22.49992 22.5,22.5 0 0 0 -22.49992,-22.49992 22.5,22.5 0 0 0 -6.00893,0.83251 l -41.19801,-74.64557 a 22.5,22.5 0 0 0 5.83634,-15.10657 22.5,22.5 0 0 0 -22.49992,-22.49992 z" />
        <path
           id="circle2952-5-4"
           style="mix-blend-mode:normal;fill:#ff7f2a;fill-opacity:1;stroke:#000000;stroke-width:2;stroke-dasharray:none;stroke-opacity:1;filter:url(#filter7842-8)"
           inkscape:label="Outline"
           d="m 441.3968,436.62872 a 22.5,22.5 0 0 0 -22.49992,22.49992 22.5,22.5 0 0 0 22.49992,22.50043 22.5,22.5 0 0 0 4.58422,-0.48421 l 41.64087,75.44811 a 22.5,22.5 0 0 0 -4.85449,13.95522 22.5,22.5 0 0 0 1.01596,6.67763 l -30.5449,28.70212 a 22.5,22.5 0 0 0 -16.0998,-6.78305 22.5,22.5 0 0 0 -16.89406,7.66155 l -42.61238,-24.33391 a 25,25 0 0 0 0.0227,-0.60152 25,25 0 0 0 -25.00003,-25.00002 25,25 0 0 0 -11.68766,2.91972 l -50.59536,-42.99583 a 22.5,22.5 0 0 0 0.70228,-5.52059 22.5,22.5 0 0 0 -22.50043,-22.50044 22.5,22.5 0 0 0 -22.49992,22.50044 22.5,22.5 0 0 0 7.79281,17.00671 l -26.4325,46.63592 a 30,30 0 0 0 -4.68292,-0.36846 30,30 0 0 0 -19.34714,7.09776 l -64.80328,-31.71744 a 25,25 0 0 0 0.1571,-2.64274 25,25 0 0 0 -25.00002,-25.00002 25,25 0 0 0 -25.000028,25.00002 25,25 0 0 0 25.000028,25.00003 25,25 0 0 0 19.57141,-9.44749 l 61.73008,30.21315 a 30,30 0 0 0 -2.30787,11.49645 30,30 0 0 0 6.28179,18.34824 l -30.52889,29.28503 a 40,40 0 0 0 -20.78529,-5.82652 40,40 0 0 0 -40.00014,39.99963 40,40 0 0 0 13.81569,30.20177 l -34.743098,39.21363 a 15,15 0 0 0 -1.65313,-0.0925 15,15 0 0 0 -15.00011,15.00012 15,15 0 0 0 15.00011,14.9996 15,15 0 0 0 15.000118,-14.9996 15,15 0 0 0 -1.745628,-7.0218 L 133.70495,723.7993 a 40,40 0 0 0 14.01413,2.5554 40,40 0 0 0 40.00014,-40.00014 40,40 0 0 0 -8.73487,-24.9468 l 30.98881,-29.72635 a 30,30 0 0 0 12.77803,2.86701 30,30 0 0 0 30.00024,-30.00024 30,30 0 0 0 -12.36514,-24.26673 l 26.40149,-46.58217 a 22.5,22.5 0 0 0 1.78594,0.0749 22.5,22.5 0 0 0 14.27148,-5.11752 l 48.08182,40.86056 a 25,25 0 0 0 -3.27215,12.35376 25,25 0 0 0 25.00002,25.00003 25,25 0 0 0 20.61786,-10.86601 l 41.46052,23.6766 a 22.5,22.5 0 0 0 -0.0946,1.96318 22.5,22.5 0 0 0 22.49992,22.50044 22.5,22.5 0 0 0 22.49992,-22.50044 22.5,22.5 0 0 0 -0.14159,-2.50682 l 32.4404,-30.48289 a 22.5,22.5 0 0 0 13.32993,4.39301 22.5,22.5 0 0 0 22.49992,-22.49992 22.5,22.5 0 0 0 -22.49992,-22.49992 22.5,22.5 0 0 0 -6.00893,0.83251 l -41.19801,-74.64557 a 22.5,22.5 0 0 0 5.83634,-15.10657 22.5,22.5 0 0 0 -22.49992,-22.49992 z" />
        <path
           id="circle2952-5-7"
           style="display:inline;fill:#ff6600;stroke:#000000;stroke-width:2;stroke-dasharray:none;stroke-opacity:1"
           inkscape:label="Outline"
           d="m 441.3968,436.62873 a 22.5,22.5 0 0 0 -22.49992,22.49992 22.5,22.5 0 0 0 22.49992,22.50043 22.5,22.5 0 0 0 4.58422,-0.48421 l 41.64087,75.44811 a 22.5,22.5 0 0 0 -4.85449,13.95522 22.5,22.5 0 0 0 1.01596,6.67763 l -30.5449,28.70212 a 22.5,22.5 0 0 0 -16.0998,-6.78305 22.5,22.5 0 0 0 -16.89406,7.66155 l -42.61238,-24.33391 a 25,25 0 0 0 0.0227,-0.60152 25,25 0 0 0 -25.00003,-25.00002 25,25 0 0 0 -11.68766,2.91972 l -50.59536,-42.99583 a 22.5,22.5 0 0 0 0.70228,-5.52059 22.5,22.5 0 0 0 -22.50043,-22.50044 22.5,22.5 0 0 0 -22.49992,22.50044 22.5,22.5 0 0 0 7.79281,17.00671 l -26.4325,46.63592 a 30,30 0 0 0 -4.68292,-0.36846 30,30 0 0 0 -19.34714,7.09776 l -64.80328,-31.71744 a 25,25 0 0 0 0.1571,-2.64274 25,25 0 0 0 -25.00002,-25.00002 25,25 0 0 0 -25.000034,25.00002 25,25 0 0 0 25.000034,25.00003 25,25 0 0 0 19.57141,-9.44749 l 61.73008,30.21315 a 30,30 0 0 0 -2.30787,11.49645 30,30 0 0 0 6.28179,18.34824 l -30.52889,29.28503 a 40,40 0 0 0 -20.78529,-5.82652 40,40 0 0 0 -40.00014,39.99963 40,40 0 0 0 13.81569,30.20177 l -34.743104,39.21363 a 15,15 0 0 0 -1.65313,-0.0925 15,15 0 0 0 -15.00011,15.00012 15,15 0 0 0 15.00011,14.9996 15,15 0 0 0 15.000124,-14.9996 15,15 0 0 0 -1.745634,-7.0218 l 35.312064,-39.85648 a 40,40 0 0 0 14.01413,2.5554 40,40 0 0 0 40.00014,-40.00014 40,40 0 0 0 -8.73487,-24.9468 l 30.98881,-29.72635 a 30,30 0 0 0 12.77803,2.86701 30,30 0 0 0 30.00024,-30.00024 30,30 0 0 0 -12.36514,-24.26673 l 26.40149,-46.58217 a 22.5,22.5 0 0 0 1.78594,0.0749 22.5,22.5 0 0 0 14.27148,-5.11752 l 48.08182,40.86056 a 25,25 0 0 0 -3.27215,12.35376 25,25 0 0 0 25.00002,25.00003 25,25 0 0 0 20.61786,-10.86601 l 41.46052,23.6766 a 22.5,22.5 0 0 0 -0.0946,1.96318 22.5,22.5 0 0 0 22.49992,22.50044 22.5,22.5 0 0 0 22.49992,-22.50044 22.5,22.5 0 0 0 -0.14159,-2.50682 l 32.4404,-30.48289 a 22.5,22.5 0 0 0 13.32993,4.39301 22.5,22.5 0 0 0 22.49992,-22.49992 22.5,22.5 0 0 0 -22.49992,-22.49992 22.5,22.5 0 0 0 -6.00893,0.83251 l -41.19801,-74.64557 a 22.5,22.5 0 0 0 5.83634,-15.10657 22.5,22.5 0 0 0 -22.49992,-22.49992 z" />
      </g>
      <path
         style="fill:#ff0000;fill-opacity:1;stroke:#000000;stroke-width:7.55906;stroke-dasharray:none;stroke-opacity:1"
         d="m -460.65161,-547.63171 c 9.62721,82.13472 12.80315,170.26994 -19.06809,250.40031 -26.04284,90.46489 -83.23352,167.46528 -134.81424,246.670305 -70.53166,70.686917 -142.62539,139.131025 -217.69361,204.702505 -76.71421,48.38464 -158.09499,78.85342 -235.85465,141.66346 -67.8897,37.69576 -107.4051,98.13256 -148.1956,164.57639 -55.6347,64.55119 -80.4318,145.86992 -108.9593,224.66892 -23.6027,84.38475 -31.9782,171.64951 -27.8177,260.02809 5.1538,91.01333 18.5972,157.53113 29.4199,221.48783 14.9068,76.5446 -10.3695,164.6624 -73.8599,212.73 -48.8425,48.4086 -135.4987,26.3501 -156.3863,-25.6913 -47.3545,-58.8594 56.4113,-125.7661 -6.6954,-171.5176 -68.1083,-52.2214 -160.5196,22.9417 -163.6354,98.6237 -19.4272,97.4136 7.0658,181.7405 97.8621,207.1257 90.4086,38.3641 187.7352,4.4031 274.5181,-24.9899 93.5769,-45.8891 175.2956,-131.6817 185.9134,-239.1095 19.9397,-74.3573 11.1134,-161.6984 4.777,-235.31568 -12.3103,-88.64466 -35.0532,-177.67446 -27.6087,-268.99767 13.0515,-88.79468 39.7323,-171.76699 93.6831,-244.98766 55.7636,-59.04953 93.176,-139.42821 168.0008,-176.27702 58.39975,-39.48261 119.64057,-74.99788 199.99294,-122.64272 92.10823,-36.81309 165.62835,-105.901078 228.28574,-180.6978534 66.55597,-58.1378276 141.52932,-137.3743766 151.7915,-227.5681866"
         id="path8334"
         inkscape:label="Aux1" />
      <path
         style="fill:#ff0000;fill-opacity:1;stroke:#000000;stroke-width:7.55906;stroke-dasharray:none;stroke-opacity:1"
         d="m 832.57234,-388.4817 c 183.94696,194.85607 405.01686,350.24383 522.34846,600.03837 222.3016,225.43336 607.1494,443.5762 534.5908,813.86073 -77.7665,307.2582 -469.3815,213.1926 -609.0535,448.9614 -154.1889,248.2099 463.1641,102.3817 210.7544,375.9617 -187.6778,118.8767 -546.36098,-88.6722 -408.6214,-327.4926 159.1041,-192.3085 388.28,-306.6244 595.4446,-439.9646 C 1740.5936,836.06876 1393.0377,703.75279 1416.8469,440.91276 1227.6411,252.32186 1073.7376,26.132663 871.42551,-142.43253 747.87842,-175.94424 608.16629,-408.80487 832.57234,-388.4817 Z"
         id="path8338"
         inkscape:label="Aux2" />
      <path
         style="fill:#ff0000;fill-opacity:1;stroke:#000000;stroke-width:7.55906;stroke-dasharray:none;stroke-opacity:1"
         d="m -426.42081,-555.08071 c -99.5006,331.97757 -513.03005,161.73173 -734.89509,320.94153 -287.5204,127.39004 -419.7759,561.27985 -126.3678,755.65566 154.9641,117.12571 656.445,222.15303 374.80783,474.58579 -245.71463,149.80383 39.96964,376.72103 165.84492,142.48023 C -561.53816,904.97862 -767.18075,642.67528 -950.83064,489.17684 -1216.8803,370.06136 -1142.7142,1.0763982 -852.3592,-6.9214979 -723.58503,2.4142754 -608.8775,-46.974135 -494.66396,-99.944327"
         id="path8340"
         inkscape:label="Aux3" />
      <path
         style="fill:#ff0000;fill-opacity:1;stroke:#000000;stroke-width:7.55906;stroke-dasharray:none;stroke-opacity:1"
         d="m 771.85574,-585.6908 c 142.05052,383.14995 656.99036,146.27225 888.70566,415.6523 236.8025,352.43089 -214.8771,587.10471 -428.9257,783.45404 -183.1575,145.09996 -81.2569,488.79626 146.8633,281.13801 394.4871,29.30721 -68.2359,507.62495 -292.2266,306.79485 -415.47707,-163.1736 -219.10075,-691.74371 121.6713,-814.41893 275.6708,-121.95281 222.5945,-594.33386 -108.0386,-547.64686 l -38.8267,8.23578 -38.8293,14.40019"
         id="path8342"
         inkscape:label="Aux4" />
      <path
         id="path1611"
         style="fill:#ff2a2a;stroke-width:1.25283"
         d="m 204.066,-1588 a 755.90552,755.90552 0 0 0 -755.90438,755.90626 755.90552,755.90552 0 0 0 425.06457,679.42187 c 11.82954,-12.44021 20.5697,-27.41084 34.279181,-38.37888 10.64126,-8.51312 23.480315,-14.31908 34.121197,-22.83205 6.92674,-5.5415 12.007937,-13.13208 18.816378,-18.81834 15.367181,-12.83441 32.4105831,-20.47298 49.4279062,-30.3594 19.6792438,-11.43299 37.0820788,-27.0322 56.9529458,-38.13672 27.992693,-15.64323 64.095492,-24.04157 94.837792,-30.10938 20.51226,-4.04851 72.48303,-0.80817 91.07452,3.7637 1.72271,0.42361 2.04246,3.33335 3.76366,3.76365 6,2.2467 12.72718,-1.49779 18.81827,0 20.13467,4.95133 40.7433,10.14308 60.7166,15.05469 13.24233,3.2564 35.69915,23.57129 49.42601,30.3594 3.55578,1.7585 7.90715,1.68952 11.28907,3.76365 8.80819,5.40249 13.91773,17.48322 22.83175,22.83205 3.40195,2.04098 7.90186,1.70245 11.29134,3.76365 10.90583,6.6322 17.74677,17.99872 26.34368,26.59571 17.40586,17.4065 40.13745,31.14724 53.1893,53.19141 2.02129,3.41359 1.38368,8.11536 3.76365,11.28907 1.68302,2.24409 5.54419,1.78012 7.52731,3.76365 0.84926,0.849 2.11993,2.82917 3.52932,5.19727 A 755.90552,755.90552 0 0 0 959.97228,-832.09374 755.90552,755.90552 0 0 0 204.066,-1588 Z"
         inkscape:label="Head" />
      <g
         id="g2626"
         inkscape:label="front-left"
         style="display:inline"
         transform="matrix(3.7795276,0,0,3.7795276,-2671.9788,-3073.9629)">
        <path
           style="fill:#ff2a2a;stroke-width:0.264583"
           d="m 572.00725,645.83981 c 11.43072,60.22322 -20.70649,117.86055 -58.64876,162.06671 -34.70948,41.59315 -78.50281,76.51491 -102.19217,126.40393 -30.5199,57.26565 -38.62647,126.56685 -17.59409,188.41545 18.94798,61.2545 68.65932,119.5758 135.28613,127.4843 19.92612,0.054 42.57571,3.1294 59.92191,-8.7909 21.58674,-16.705 31.23346,-53.603 12.06277,-75.2552 -21.55199,-15.7835 -40.93721,10.0877 -61.30971,14.5419 -35.00654,9.2612 -66.44453,-19.6265 -79.80397,-49.4986 -12.15369,-24.2274 -14.50591,-52.4186 -8.01402,-78.5148 5.16754,-46.9019 47.12127,-74.75833 77.57622,-105.91965 32.26879,-36.4482 57.20142,-79.41625 75.84407,-124.30822 15.66784,-39.57946 23.08797,-83.34157 15.12562,-125.55316"
           id="path1975" />
        <path
           style="fill:#ff8080;stroke-width:0.264583"
           d="m 623.25695,742.1711 c -20.01909,66.69609 -81.80965,107.92662 -129.12262,154.67986 -58.75293,37.81025 -86.19697,105.32094 -82.70526,173.54084 -5.05836,73.6046 66.78498,141.8059 139.72301,130.204 55.33727,-18.9269 5.23911,-37.585 -25.72911,-19.4518 -44.0607,2.8875 -71.12198,-50.1663 -75.35171,-88.7533 -6.90968,-55.2653 27.23877,-104.4726 69.77426,-135.9668 46.02555,-42.21912 80.52251,-96.24837 93.95784,-157.4173 5.96392,-18.28262 11.20193,-37.41286 9.45359,-56.8355 z"
           id="path1977" />
        <ellipse
           style="fill:#ff5555;stroke:#c00f0f;stroke-width:2;stroke-dasharray:none;stroke-opacity:1"
           id="path2318"
           cx="555.88855"
           cy="876.55011"
           rx="13.423623"
           ry="10.412717" />
        <ellipse
           style="fill:#ff5555;stroke:#c00f0f;stroke-width:2;stroke-dasharray:none;stroke-opacity:1"
           id="path2495"
           cx="512.85773"
           cy="925.10095"
           rx="14.050896"
           ry="13.799987" />
        <ellipse
           style="fill:#ff5555;stroke:#c00f0f;stroke-width:2;stroke-dasharray:none;stroke-opacity:1"
           id="path2497"
           cx="451.00867"
           cy="991.71722"
           rx="11.165444"
           ry="14.929077" />
        <ellipse
           style="fill:#ff5555;stroke:#c00f0f;stroke-width:2;stroke-dasharray:none;stroke-opacity:1"
           id="path2499"
           cx="432.31595"
           cy="1077.5281"
           rx="12.796351"
           ry="13.423623" />
        <ellipse
           style="fill:#ff5555;stroke:#c00f0f;stroke-width:2;stroke-dasharray:none;stroke-opacity:1"
           id="path2505"
           cx="475.59775"
           cy="1167.1025"
           rx="10.663627"
           ry="9.6599903" />
        <ellipse
           style="fill:#ff5555;stroke:#c00f0f;stroke-width:2.00229;stroke-dasharray:none;stroke-opacity:1"
           id="path2507"
           cx="215.96977"
           cy="1268.8092"
           rx="21.34679"
           ry="10.030503"
           transform="matrix(0.98067789,-0.19562941,0.26150288,0.96520269,0,0)" />
        <path
           style="fill:#ff2a2a;stroke-width:0.264583"
           d="m 547.99187,842.5635 c 20.00351,-25.4516 51.87064,-36.88328 82.47695,-43.47717 36.0971,-8.26578 75.24598,-12.5685 105.46619,-35.96338 17.62384,-11.75823 23.84667,-37.99252 11.69283,-55.81507 -15.41654,-23.91862 -48.11713,-34.28982 -74.69698,-24.51576 -42.68915,8.44992 -77.45327,39.59099 -99.31526,76.11529 -15.97686,26.3656 -26.74238,55.8236 -32.1624,86.1455"
           id="path2544" />
      </g>
      <g
         id="g2636"
         inkscape:label="front-right"
         style="display:inline"
         transform="matrix(3.7795276,0,0,3.7795276,-2671.9788,-3073.9629)">
        <path
           style="fill:#ff2a2a;stroke-width:0.264583"
           d="m 936.72855,667.05712 c 8.94517,67.7382 86.16645,88.40329 119.25885,141.33358 91.6491,117.9657 96.6618,305.1177 -9.5222,415.6503 -45.0807,39.7759 -109.51358,52.5182 -167.94251,47.6273 -72.79592,-8.2939 -110.02315,-96.0845 -80.28871,-159.0586 -0.60967,-40.7853 82.63897,-91.2378 84.9242,-31.3363 -12.55168,37.2714 -54.63703,77.8633 -26.18042,117.9427 33.19757,32.4198 84.60877,7.7507 117.91126,-12.2969 87.02998,-58.9139 93.77098,-187.17472 44.90308,-272.74578 -24.98718,-50.08958 -72.09242,-81.95001 -119.41715,-108.04856 -19.93107,-14.87517 -38.84044,-33.61469 -45.9786,-58.14157"
           id="path2238" />
        <path
           style="fill:#ff8080;stroke-width:0.264583"
           d="m 896.9237,800.55714 c 39.36091,32.88125 102.63365,23.51804 131.8544,71.81319 43.1143,41.5469 79.71,98.21541 69.742,160.79857 -2.7826,83.7485 -73.8986,144.2679 -145.34603,175.3713 -15.06909,12.2495 -67.43341,8.9204 -23.50049,-5.5429 70.90292,-20.5263 113.04682,-94.6904 109.18382,-166.1925 10.1665,-91.0956 -48.10936,-178.98609 -126.35861,-221.5122 l -8.25732,-6.87467 z"
           id="path2242" />
        <path
           style="fill:#ff2a2a;stroke-width:0.264583"
           d="M 971.99094,739.66381 C 954.12433,716.5419 947.54433,686.55189 948.184,657.78284 c -16.70112,-15.12365 -20.79576,19.41616 -9.5721,27.85999 6.7444,18.50843 10.10908,40.27988 26.07212,53.52115 2.1249,1.30315 5.05618,2.01533 7.30692,0.49983 z"
           id="path2258" />
        <circle
           style="fill:#ff5555;stroke:#c00f0f;stroke-width:2;stroke-dasharray:none;stroke-opacity:1"
           id="path2511"
           cx="1028.8549"
           cy="909.98383"
           r="14.016129" />
        <ellipse
           style="fill:#ff5555;stroke:#c00f0f;stroke-width:2;stroke-dasharray:none;stroke-opacity:1"
           id="path2513"
           cx="1063.4517"
           cy="993.37097"
           rx="18.451612"
           ry="17.209677" />
        <ellipse
           style="fill:#ff5555;stroke:#c00f0f;stroke-width:2;stroke-dasharray:none;stroke-opacity:1"
           id="path2515"
           cx="1309.6589"
           cy="768.45715"
           rx="14.370967"
           ry="16.32258"
           transform="rotate(16.505291)" />
        <ellipse
           style="fill:#ff5555;stroke:#c00f0f;stroke-width:2;stroke-dasharray:none;stroke-opacity:1"
           id="path2517"
           cx="955.58063"
           cy="1197.5807"
           rx="8.5161285"
           ry="7.4516129" />
        <path
           style="fill:#ff2a2a;stroke-width:0.264583"
           d="m 985.02257,823.97583 c -53.2144,-3.54525 -105.7762,-15.85563 -156.82407,-30.5216 -40.29014,-15.76158 -79.467,-44.69988 -92.60382,-87.69079 -28.70312,-42.75165 38.07265,-69.61797 68.10457,-42.02913 61.40815,26.47425 108.96082,76.23545 153.50906,124.57335 10.04348,12.49557 19.19798,25.78783 26.32066,40.18231"
           id="path2546" />
      </g>
      <path
         style="fill:none;stroke:#000000;stroke-width:7.55906;stroke-dasharray:none;stroke-opacity:1"
         d="m -14.773558,595.1032 c 0,0 308.161898,168.79435 263.565358,298.69898"
         id="path4701" />
      <path
         style="fill:none;stroke:#000000;stroke-width:7.55906;stroke-dasharray:none;stroke-opacity:1"
         d="m -103.06597,890.41572 c -19.42639,69.72397 -51.7149,128.75868 28.784884,118.69038"
         id="path4703" />
      <path
         style="fill:none;stroke:#000000;stroke-width:7.55906;stroke-dasharray:none;stroke-opacity:1"
         d="M -540.1449,372.2813 C -341.18452,64.926188 -299.41054,-22.387703 -126.7946,-79.21702 45.821341,-136.0463 138.77807,-189.11211 176.66329,-266.89181"
         id="path4705" />
      <path
         style="fill:none;stroke:#000000;stroke-width:7.55906;stroke-dasharray:none;stroke-opacity:1"
         d="m 793.36314,20.014402 c 0,0 -57.56938,-30.870199 -132.70261,-44.264996 C 585.52768,-37.645391 431.18084,-83.3296 396.40881,-99.3856 361.6364,-115.44171 265.12541,-169.0209 208.79759,-230.76111 152.47016,-292.50139 101.37624,-378.36999 94.723137,-394.42611"
         id="path4707" />
      <path
         style="fill:none;fill-opacity:1;stroke:#800000;stroke-width:7.55906;stroke-dasharray:none;stroke-opacity:1"
         d="m 106.58972,-350.39661 c 140.35087,-87.24518 159.31729,-53.10581 159.31729,-53.10581"
         id="path12401" />
      <path
         id="path4355"
         style="display:inline;fill:none;stroke:#000000;stroke-width:7.55906;stroke-dasharray:none;stroke-opacity:1"
         inkscape:label="Outline"
         d="m 368.01624,1058.9524 c -13.66072,25.0046 -21.6359,50.9858 -21.26173,76.0048 -112.38161,238.0101 28.32038,569.819 303.45298,601.166 220.83213,18.4853 464.36031,-29.6776 634.74411,-180.0098 401.3212,-417.7588 382.3778,-1125.10905 35.9879,-1570.960945 -90.2166,-144.300705 -267.185,-225.175295 -371.51739,-355.116855 -24.54463,-61.13945 -35.33103,-127.98735 -35.94709,-193.85764 a 755.90552,755.90552 0 0 0 48.28309,-264.49217 755.90552,755.90552 0 0 0 -755.9059,-755.90629 l 3.8e-4,4e-4 a 755.90552,755.90552 0 0 0 -755.90439,755.90627 755.90552,755.90552 0 0 0 49.96687,269.47283 c 9.51647,201.82432 -101.30911,392.39524 -229.85538,542.163785 -131.18475,157.201365 -296.70239,289.190365 -386.23639,477.745895 -115.35,216.43556 -145.9903,478.36714 -66.4981,712.12302 71.6137,231.5127 259.50237,451.9396 511.31831,481.83 75.31049,0.2041 160.91641,11.8265 226.47685,-33.2266 81.58639,-63.1347 118.04485,-202.5925 45.58979,-284.4276 -57.52063,-42.1251 -110.95974,-5.8306 -164.50998,25.1154 a 37.799328,80.732958 79.810563 0 0 -61.77714,-0.3137 37.799328,80.732958 79.810563 0 0 -63.57808,32.0353 c -21.33732,0.8828 -41.60768,-1.6933 -60.74834,-7.1993 -29.72825,-10.4587 -57.51874,-27.2239 -82.51163,-48.0745 a 40.303473,36.5102 0 0 0 -35.46292,-34.2693 c -0.0907,-0.1021 -0.17764,-0.2041 -0.26835,-0.3061 -57.28139,-69.012 -92.20007,-165.6458 -100.98822,-245.8186 -17.21802,-137.7109 33.03836,-265.45931 115.33984,-370.64269 32.05984,-36.1152 68.05493,-69.78872 103.7881,-102.96386" />
      <path
         id="path4353"
         style="display:inline;fill:none;stroke:#000000;stroke-width:7.55906;stroke-dasharray:none;stroke-opacity:1"
         inkscape:label="Outline"
         d="m 487.18815,941.43594 c -48.00567,27.23263 -93.57203,70.65936 -119.17191,117.51646" />
      <path
         id="path4351"
         style="display:inline;fill:none;stroke:#000000;stroke-width:7.55906;stroke-dasharray:none;stroke-opacity:1"
         inkscape:label="Outline"
         d="m 1009.1609,187.07629 c 169.8679,175.51491 274.4931,415.35213 247.0364,661.37307 3.9401,72.92372 -4.8064,146.57575 -24.9079,216.78504 a 54.315466,61.691642 16.505291 0 0 -32.7874,40.1601 54.315466,61.691642 16.505291 0 0 2.1563,44.7326 c -51.2667,116.6876 -135.7943,217.4986 -246.71663,280.0233 a 32.186943,28.163577 0 0 0 -12.49021,-2.2069 32.186943,28.163577 0 0 0 -31.89846,24.5114 c -21.19823,9.4122 -43.20491,17.5185 -66.01965,24.1232 -53.57216,17.6368 -69.22469,30.8856 -63.98211,39.1971 -75.98098,14.1922 -151.15125,4.738 -210.77367,-53.4882 C 461.22582,1310.8077 620.2895,1157.3861 667.729,1016.5197 663.12025,895.72482 571.40094,893.66347 487.18815,941.43594" />
      <g
         id="g8767"
         inkscape:label="Bandana"
         transform="matrix(3.7795276,0,0,3.7795276,-2671.9788,-3073.9629)">
        <path
           style="opacity:1;fill:#ececec;fill-opacity:1;stroke:#000000;stroke-width:2;stroke-dasharray:none;stroke-opacity:1"
           d="m 906.83685,516.68965 c 16.52996,2.58715 27.14734,16.41624 30.06406,31.14079 13.39423,9.39677 9.36533,27.61731 -7.33552,28.94586 -9.08085,2.55977 -32.98452,4.72768 -20.82113,-10.48381 11.94914,-14.56809 -12.71604,-21.37905 -14.91704,-34.57269 -2.79342,-8.98716 4.81374,-14.60511 13.00963,-15.03015 z"
           id="path8680" />
        <path
           style="opacity:1;fill:#ececec;fill-opacity:1;stroke:#000000;stroke-width:2;stroke-dasharray:none;stroke-opacity:1"
           d="m 875.6689,501.0114 c -45.98227,23.88316 -100.96429,20.62593 -150.67968,12.47181 -39.54781,-8.18478 -77.30018,-25.34312 -109.69309,-49.18458 -40.56884,-9.88273 -41.60759,46.5781 -2.19039,46.89224 39.53595,13.94344 80.68762,23.18846 121.04326,34.08549 45.35642,7.14848 94.27654,9.84886 137.60947,-7.03579 14.68834,-7.22997 18.46678,-27.60459 3.91043,-37.22917 z"
           id="path8687" />
        <path
           style="opacity:1;fill:#ececec;fill-opacity:1;stroke:#000000;stroke-width:2;stroke-dasharray:none;stroke-opacity:1"
           d="m 902.61227,486.83523 c 3.41849,-0.39922 7.8216,-7.86024 1.61633,-4.15967 -3.53947,5.07964 2.37356,3.31046 3.89646,0.0997 5.09446,-3.94726 11.87515,-3.32752 17.65347,-4.84363 5.71036,1.86415 6.49755,9.07026 10.32069,13.23323 3.5376,4.09004 8.1941,10.45899 0.54114,13.32045 -5.16933,3.43772 -11.99787,2.83966 -16.98343,-0.63758 -4.38357,0.0679 -12.83197,5.20627 -12.55389,-2.98861 -0.33224,-5.02114 -2.32067,-9.57051 -4.49077,-14.02386 z"
           id="path8683" />
        <path
           style="opacity:1;fill:#ececec;fill-opacity:1;stroke:#000000;stroke-width:2;stroke-dasharray:none;stroke-opacity:1"
           d="m 896.97953,484.01877 c 1.51966,-15.28709 11.68632,-30.19603 7.74697,-45.64543 -9.08962,-8.84059 -26.13561,-3.23792 -35.70345,2.75743 -7.50745,13.27892 17.2804,20.28616 9.45993,35.6591 -4.63676,17.33887 8.88528,21.86515 18.49655,7.2289 z"
           id="path8677" />
        <path
           style="opacity:1;fill:#ececec;fill-opacity:1;stroke:#000000;stroke-width:2;stroke-dasharray:none;stroke-opacity:1"
           d="m 908.33891,485.42699 c -1.12413,-1.56785 -7.31447,-4.88002 -4.23005,-0.81737 2.31823,1.62412 5.38472,0.47086 1.40814,-0.95064 -4.54596,-3.1862 -10.14344,-5.96429 -15.73709,-3.71021 -4.17789,1.60647 -11.27967,3.35882 -11.38654,8.74373 1.88081,3.55173 5.71568,5.201 7.61578,9.00798 2.14745,3.43454 6.41667,3.37912 7.63633,7.17073 3.97998,2.68566 6.89602,7.07356 12.31779,5.244 4.90769,-0.83658 11.71697,-2.57702 12.88688,-8.21972 0.17096,-5.50948 -4.40715,-9.81899 -7.75737,-13.71032 -0.90138,-0.93578 -1.82551,-1.84928 -2.75387,-2.75818 z"
           id="path8480" />
        <path
           style="opacity:1;fill:#ececec;fill-opacity:1;stroke:#000000;stroke-width:2;stroke-dasharray:none;stroke-opacity:1"
           d="m 885.62012,488.24345 c -1.60338,-1.37902 -7.66789,-0.066 -3.11796,0.69135 5.02684,-0.62377 -5.44149,0.53485 -7.18736,0.85894 -3.8644,1.98204 -7.87444,4.54288 -10.09393,8.44939 -2.23032,4.30435 2.00873,8.75698 5.22959,11.11918 4.17459,2.41948 8.27258,1.07022 12.37612,3.34697 3.04025,-1.06802 5.14336,-2.20051 8.68857,-2.25392 2.43197,-2.89042 9.54787,-0.74445 8.60212,-5.59787 -2.45985,-4.04969 -1.2159,-10.05552 -5.74439,-12.88922 -2.6936,-1.70076 -5.84881,-2.46961 -8.75276,-3.72482 z"
           id="path8671" />
        <path
           style="opacity:1;fill:#ececec;fill-opacity:1;stroke:#000000;stroke-width:2;stroke-dasharray:none;stroke-opacity:1"
           d="m 906.83685,502.41961 c 2.64199,3.37566 5.97647,-3.09616 2.0353,-0.43407 3.70125,2.97726 12.86267,1.60575 12.02224,9.55134 -1.27835,7.6525 -10.2821,9.54655 -16.79882,10.0869 -6.77387,2.35806 -15.48714,-0.62014 -16.18014,-8.63019 0.86489,-7.49355 10.27197,-10.45249 16.83156,-10.67041 0.69616,0.0422 1.39312,0.067 2.08986,0.0964 z"
           id="path8673" />
        <path
           style="opacity:1;fill:#ececec;fill-opacity:1;stroke:#000000;stroke-width:2;stroke-dasharray:none;stroke-opacity:1"
           d="m 895.57134,509.55463 c -0.51278,-3.11367 -2.38373,-6.19103 -5.43069,-7.35558 -3.93089,-1.52596 -8.38356,-0.44408 -11.9536,1.52684 -3.18049,1.81062 -6.20116,4.63101 -6.82916,8.39665 -0.50653,3.08396 1.46912,5.91964 3.87347,7.62908 1.31233,1.05021 2.94005,1.60034 4.15437,2.77001 3.99713,2.79214 9.3648,2.57298 13.78208,0.97281 2.91276,-1.11532 5.9827,-2.96009 7.06248,-6.05743 0.84703,-2.49331 -0.71403,-5.0441 -2.63418,-6.55089 -0.64097,-0.48076 -1.25019,-1.08065 -2.02477,-1.33149 z"
           id="path8675" />
        <path
           style="opacity:1;fill:#000000;fill-opacity:1;stroke:none;stroke-width:2;stroke-dasharray:none;stroke-opacity:1"
           id="path8742"
           d="m 608.81227,510.48155 c 2.07447,-0.30901 4.17299,-0.63932 6.20115,-1.18616 1.68153,-0.47659 3.33285,-1.05267 5.01068,-1.54162 1.4673,-0.53956 2.90711,-1.15977 4.39875,-1.62946 1.30781,-0.57047 2.59831,-1.18422 3.85389,-1.86298 1.86661,-1.0925 3.83069,-2.03034 5.61068,-3.26248 1.61621,-0.9521 3.0694,-2.11579 4.50241,-3.3212 1.75879,-1.27501 3.37336,-2.73334 5.09104,-4.05845 1.11879,-1.09775 2.50131,-1.85483 3.70255,-2.84318 1.03566,-0.67038 1.87261,-1.5085 2.65351,-2.45269 0.4164,-0.64873 1.11582,-1.12747 1.48087,-1.80822 -0.20336,-0.71887 0.007,-0.14406 -1.67349,-0.75567 0,0 0.15335,0.0907 0.15335,0.0907 v 0 c -1.28693,-1.17391 -0.68135,-1.17581 -1.43632,-1.11258 -0.60743,0.48565 -0.97038,1.24603 -1.5314,1.78107 -0.77023,0.92348 -1.61838,1.72053 -2.62279,2.39123 -1.20896,0.97126 -2.569,1.7517 -3.6844,2.8453 -1.71173,1.33789 -3.33706,2.78609 -5.08892,4.07503 -1.43095,1.19372 -2.91267,2.30439 -4.49718,3.28626 -1.77239,1.22272 -3.71977,2.169 -5.59228,3.22678 -1.24542,0.65712 -2.51862,1.26854 -3.81688,1.81385 -1.47587,0.4976 -2.91179,1.10673 -4.37769,1.63309 -1.66595,0.50805 -3.31822,1.06092 -4.9928,1.53987 -2.02472,0.51642 -4.09495,0.90707 -6.16913,1.15221 0,0 2.8244,1.9993 2.8244,1.9993 z" />
        <path
           style="opacity:1;fill:#000000;fill-opacity:1;stroke:none;stroke-width:2;stroke-dasharray:none;stroke-opacity:1"
           id="path8746"
           d="m 656.7901,524.56765 c 2.15706,-0.0164 4.31384,0.0188 6.47049,0.056 1.26928,2.6e-4 2.53836,0.022 3.80751,0.0373 1.21137,0.0106 2.4229,0.013 3.63434,0.0175 1.15094,0.0972 2.25862,-0.24173 3.38572,-0.42077 1.44499,-0.12147 2.86168,-0.29464 4.26561,-0.67172 1.93363,-0.38799 3.76412,-1.08784 5.60615,-1.77501 1.83414,-0.73359 3.6096,-1.5783 5.34366,-2.5195 1.05849,-0.80354 2.27131,-1.32908 3.28655,-2.19009 1.05507,-0.76679 2.05284,-1.60342 3.08922,-2.39723 1.03846,-0.68686 2.06981,-1.40507 2.98524,-2.25195 0.88156,-0.71421 1.81303,-1.34061 2.63678,-2.12523 0.52637,-0.47287 0.97825,-0.95097 1.23024,-1.61685 0.52543,-1.02497 -1.61325,-2.59524 -2.07039,-0.85979 0,0 0.0967,0.0573 0.0967,0.0573 v 0 c 1.60422,-1.04971 -1.24835,-2.1721 -1.00134,-0.84471 -0.20995,0.62421 -0.65603,1.04674 -1.13496,1.48773 -0.82912,0.7734 -1.75884,1.40075 -2.63006,2.12314 -0.91898,0.82855 -1.9354,1.54366 -2.9623,2.23126 -1.0413,0.79306 -2.04168,1.63447 -3.09372,2.41197 -1.00666,0.82926 -2.21226,1.34252 -3.2467,2.13826 -1.70709,0.95088 -3.4766,1.76942 -5.29241,2.49425 -1.83383,0.67673 -3.65715,1.35726 -5.57705,1.75353 -1.38887,0.34358 -2.79479,0.49178 -4.21007,0.67569 -1.09062,0.19299 -2.16477,0.50657 -3.28388,0.42751 -1.19536,0.005 -2.39083,0.007 -3.58614,0.0175 -1.23491,0.0153 -2.4698,0.0373 -3.70485,0.0373 -2.10532,0.038 -4.21068,0.0727 -6.31645,0.056 0,0 2.27206,1.65074 2.27206,1.65074 z" />
        <path
           style="opacity:1;fill:#000000;fill-opacity:1;stroke:none;stroke-width:2;stroke-dasharray:none;stroke-opacity:1"
           id="path8748"
           d="m 713.15121,540.9875 c 2.16691,-0.15748 4.29054,-0.6079 6.42679,-0.98031 1.42435,-0.20873 2.84728,-0.2826 4.26008,-0.56118 1.52794,-0.2818 3.06874,-0.38261 4.59666,-0.66667 1.58779,-0.15346 3.12854,-0.48426 4.6827,-0.82333 1.51585,-0.1634 2.95672,-0.64526 4.41989,-1.0437 1.70249,-0.51178 3.38061,-1.08431 5.06495,-1.65052 1.19634,-0.33436 2.32222,-0.87572 3.49784,-1.27606 1.69058,-0.53438 3.33235,-1.16636 4.93636,-1.91807 1.51476,-0.62529 3.03083,-1.20452 4.44635,-2.03893 1.62033,-0.86125 3.11383,-1.92392 4.59954,-2.99419 1.25931,-0.74932 2.32415,-1.76562 3.46416,-2.67446 0.62508,-0.68559 1.46942,-1.09778 2.01719,-1.84915 0.44963,-0.29255 0.66944,-0.7561 0.95734,-1.18671 0.19595,-0.29985 0.44056,-0.56337 0.64966,-0.85328 0.6709,-0.9626 -1.95504,-1.2991 -2.95773,-1.90844 0.21146,0.75714 0.83114,0.92509 0.62407,1.74641 0,0 0.0694,0.0398 0.0694,0.0398 v 0 c 0.59005,-0.63296 1.0985,-0.21992 1.79539,0.0175 -0.88435,-0.64921 -1.80613,-2.54826 -2.60337,-1.73475 -0.24776,0.27279 -0.44471,0.58735 -0.66839,0.87914 -0.29022,0.42587 -0.53618,0.85277 -0.96224,1.16599 -0.53459,0.71112 -1.36665,1.11471 -1.96022,1.77554 -1.12839,0.9126 -2.19866,1.90788 -3.44476,2.66425 -1.47876,1.0623 -2.96617,2.11161 -4.5787,2.96582 -1.41914,0.80872 -2.94185,1.35913 -4.43669,2.00863 -1.59285,0.7528 -3.23773,1.35467 -4.91829,1.88468 -1.17009,0.41418 -2.30629,0.92372 -3.49737,1.27469 -1.66737,0.58335 -3.33914,1.14215 -5.03393,1.64338 -1.46301,0.396 -2.91415,0.826 -4.42219,1.02166 -1.54443,0.34724 -3.08899,0.63185 -4.66223,0.82134 -1.52775,0.27393 -3.0752,0.36164 -4.59668,0.67218 -1.39814,0.27186 -2.8198,0.30617 -4.21786,0.58494 -2.10859,0.40045 -4.21198,0.84143 -6.35619,1.00587 0,0 2.80847,1.988 2.80847,1.988 z" />
        <path
           style="opacity:1;fill:#000000;fill-opacity:1;stroke:none;stroke-width:2;stroke-dasharray:none;stroke-opacity:1"
           id="path8750"
           d="m 780.21544,550.65056 c 2.37265,-0.44669 4.75329,-0.8977 7.082,-1.53913 1.86981,-0.45069 3.68996,-1.05455 5.45211,-1.82438 1.40195,-0.63307 2.80088,-1.27162 4.20661,-1.89741 1.27738,-0.60031 2.48819,-1.32863 3.73766,-1.9916 1.40049,-0.70376 2.65078,-1.62816 3.94131,-2.50603 1.21137,-0.92987 2.58922,-1.59684 3.82871,-2.48224 1.2087,-0.90186 2.50896,-1.61509 3.65072,-2.60979 1.36536,-1.30416 2.66451,-2.67605 3.98105,-4.02913 0.81886,-1.07392 1.78451,-2.0161 2.67023,-3.0289 0.9443,-1.05799 1.80181,-2.18548 2.77392,-3.21762 0.8627,-0.69199 1.47741,-1.61989 2.23454,-2.40192 0.64344,-0.54065 0.96615,-1.30363 1.44436,-1.96741 0.35846,-0.38473 0.60394,-0.85495 0.83095,-1.3249 0.0567,-0.11327 0.0935,-0.19447 0.0617,-0.31502 -0.15563,-0.26847 -0.0619,-0.4047 0.077,-0.5919 0.15808,-0.2259 0.3244,-0.44569 0.47117,-0.67921 -1.39941,-1.70796 -2.30881,-1.51429 -1.37041,-0.0783 0,0 0.0713,0.0362 0.0713,0.0362 v 0 c 1.17631,-0.64125 0.33144,-1.0531 -1.47394,-1.5765 -0.14793,0.22085 -0.28237,0.45112 -0.44641,0.66077 -0.20362,0.2489 -0.25733,0.44257 -0.30361,0.71163 -0.0429,0.0351 -0.0889,0.0801 -0.0975,0.13488 -0.19113,0.46358 -0.44371,0.90485 -0.78089,1.27834 -0.45455,0.66503 -0.79338,1.38879 -1.4206,1.92566 -0.73067,0.80843 -1.36528,1.70521 -2.21261,2.41406 -0.9711,1.03748 -1.82372,2.17601 -2.78272,3.22545 -0.88623,1.00357 -1.81147,1.97059 -2.63189,3.03194 -1.31041,1.34623 -2.59673,2.71794 -3.96685,4.00418 -1.13384,0.97745 -2.44083,1.66812 -3.61347,2.59324 -1.24499,0.86423 -2.60223,1.55829 -3.79891,2.49687 -1.26452,0.87977 -2.50883,1.78189 -3.87345,2.50732 -1.22684,0.6717 -2.43483,1.37409 -3.6825,2.0011 -1.38295,0.6369 -2.75195,1.29998 -4.13263,1.94122 -1.72217,0.74938 -3.46382,1.43632 -5.29304,1.88153 -2.23306,0.64305 -4.4831,1.24638 -6.76018,1.71194 0,0 2.12616,1.50505 2.12616,1.50505 z" />
        <path
           style="opacity:1;fill:#000000;fill-opacity:1;stroke:none;stroke-width:2;stroke-dasharray:none;stroke-opacity:1"
           id="path8752"
           d="m 847.11303,545.51939 c 1.73654,-1.70069 3.60038,-3.25683 5.20864,-5.08309 1.25826,-1.33951 2.39983,-2.78038 3.61514,-4.15769 1.17724,-1.3076 1.91008,-2.89211 2.77323,-4.40151 0.64429,-1.34987 1.57303,-2.53063 2.23472,-3.86786 0.54708,-1.41301 1.26712,-2.74479 1.72024,-4.19444 0.2534,-1.33876 0.61283,-2.65237 0.83813,-3.99751 0.18245,-1.27183 0.2214,-2.54709 0.47095,-3.80812 0.2489,-1.47862 0.63371,-2.92563 0.88816,-4.40386 0.19304,-1.10667 0.28194,-2.22649 0.34295,-3.34692 0.0885,-1.34332 -1.26788,-1.15295 -2.44319,-1.49387 0.16087,0.23389 0.32171,0.46781 0.48257,0.7017 0,0 0.0712,0.0366 0.0712,0.0366 v 0 c 0.1723,-0.0723 0.34462,-0.14457 0.51692,-0.21686 -0.74933,-0.41351 -1.49866,-0.82703 -2.24798,-1.24058 0.10086,0.14071 0.39039,0.11666 0.44741,0.31145 0.0251,0.0857 -0.003,0.17864 -0.003,0.26799 -0.0262,1.11257 -0.11353,2.22332 -0.29183,3.32267 -0.24101,1.47751 -0.64365,2.91433 -0.88969,4.38988 -0.25985,1.26654 -0.31904,2.53921 -0.46903,3.82233 -0.22309,1.33104 -0.58565,2.62747 -0.81759,3.95566 -0.43293,1.4384 -1.1463,2.75166 -1.69338,4.14477 -0.65202,1.33326 -1.57705,2.5096 -2.21515,3.85355 -0.85368,1.48958 -1.56792,3.05705 -2.7188,4.35772 -1.16335,1.41361 -2.32556,2.82789 -3.54328,4.19454 -1.59297,1.81039 -3.44662,3.34828 -5.13368,5.06812 0,0 2.85567,1.78533 2.85567,1.78533 z" />
      </g>
      <ellipse
         style="fill:#000000;fill-opacity:1;stroke:none;stroke-width:11.2034;stroke-dasharray:none;stroke-opacity:1"
         id="path8769"
         cx="-287.32898"
         cy="-771.10272"
         rx="87.458908"
         ry="79.508102" />
      <ellipse
         style="fill:#ffffff;fill-opacity:1;stroke:none;stroke-width:4.93512;stroke-dasharray:none;stroke-opacity:1"
         id="path8769-2"
         cx="-248.46057"
         cy="-790.41559"
         rx="38.525753"
         ry="35.023411" />
      <ellipse
         style="fill:#800000;fill-opacity:1;stroke:none;stroke-width:19.2288;stroke-dasharray:none;stroke-opacity:1"
         id="path8769-4-2"
         cx="37.088463"
         cy="-463.89432"
         rx="150.10909"
         ry="136.4628" />
      <ellipse
         style="fill:#000000;fill-opacity:1;stroke:none;stroke-width:15.7929;stroke-dasharray:none;stroke-opacity:1"
         id="path8769-4"
         cx="36.01532"
         cy="-466.82031"
         rx="123.28663"
         ry="112.07875" />
      <ellipse
         style="fill:#000000;fill-opacity:1;stroke:none;stroke-width:11.3735;stroke-dasharray:none;stroke-opacity:1"
         id="path8769-9"
         cx="525.82587"
         cy="-750.89062"
         rx="88.786552"
         ry="80.71505" />
      <ellipse
         style="fill:#ffffff;fill-opacity:1;stroke:none;stroke-width:4.93512;stroke-dasharray:none;stroke-opacity:1"
         id="path8769-2-8"
         cx="563.67834"
         cy="-767.65607"
         rx="38.525753"
         ry="35.023411" />
      <path
         style="fill:none;fill-opacity:1;stroke:#800000;stroke-width:7.55906;stroke-dasharray:none;stroke-opacity:1"
         d="M -18.588235,-587.16576 C 174.8684,-659.23788 163.48862,-712.34357 163.48862,-712.34357"
         id="path9261" />
    </g>
  </g>
</svg>
